# Blender 5.1.1
# www.blender.org
mtllib Cuboooo.mtl
o Cube
v -24.000000 -24.000000 24.000000
v -24.000000 24.000000 24.000000
v -24.000000 -24.000000 -24.000000
v -24.000000 24.000000 -24.000000
v 24.000000 -24.000000 24.000000
v 24.000000 24.000000 24.000000
v 24.000000 -24.000000 -24.000000
v 24.000000 24.000000 -24.000000
vn -1.0000 -0.0000 -0.0000
vn -0.0000 -0.0000 -1.0000
vn 1.0000 -0.0000 -0.0000
vn -0.0000 -0.0000 1.0000
vn -0.0000 -1.0000 -0.0000
vn -0.0000 1.0000 -0.0000
vt 0.666667 0.666667
vt 1.000000 0.333333
vt 0.666667 0.333333
vt 0.333333 0.666667
vt 0.666667 0.333333
vt 0.333333 0.333333
vt 0.333333 0.666667
vt -0.000000 0.333333
vt 0.333333 0.333333
vt 1.333333 0.666667
vt 1.333333 0.333333
vt 0.666667 0.333333
vt 0.333333 -0.000000
vt 0.333333 0.333333
vt 0.333333 1.000000
vt 0.666667 0.666667
vt 0.666667 1.000000
vt 1.000000 0.666667
vt 0.666667 0.666667
vt -0.000000 0.666667
vt 0.666667 -0.000000
vt 0.333333 0.666667
s 0
f 2/1/1 3/2/1 1/3/1
f 4/4/2 7/5/2 3/6/2
f 8/7/3 5/8/3 7/9/3
f 6/10/4 1/2/4 5/11/4
f 7/12/5 1/13/5 3/14/5
f 4/15/6 6/16/6 8/17/6
f 2/1/1 4/18/1 3/2/1
f 4/4/2 8/19/2 7/5/2
f 8/7/3 6/20/3 5/8/3
f 6/10/4 2/18/4 1/2/4
f 7/12/5 5/21/5 1/13/5
f 4/15/6 2/22/6 6/16/6

