# Blender 5.1.1
# www.blender.org
mtllib Sphere.mtl
o Sphere
v 0.000000 24.000000 -0.000002
v 0.000000 19.955269 -13.333688
v 0.000000 13.333684 -19.955273
v 0.000000 4.682166 -23.538845
v 0.000000 -0.000002 -24.000000
v 0.000000 -4.682170 -23.538845
v 0.000000 -13.333688 -19.955269
v 0.000000 -24.000000 0.000002
v 0.913446 23.538845 -4.592203
v 1.791788 22.173107 -9.007929
v 2.601273 19.955269 -13.077484
v 3.310792 16.970560 -16.644480
v 3.893080 13.333684 -19.571836
v 4.325759 9.184401 -21.747057
v 4.592201 4.682166 -23.086552
v 4.682168 -0.000002 -23.538845
v 4.592201 -4.682170 -23.086552
v 4.325759 -9.184404 -21.747057
v 3.893080 -13.333688 -19.571833
v 3.310792 -16.970564 -16.644476
v 2.601273 -19.955273 -13.077480
v 1.791788 -22.173107 -9.007925
v 0.913446 -23.538845 -4.592199
v 1.791788 23.538845 -4.325761
v 3.514719 22.173107 -8.485284
v 5.102581 19.955271 -12.318720
v 6.494353 16.970560 -15.678756
v 7.636551 13.333685 -18.436266
v 8.485281 9.184401 -20.485281
v 9.007927 4.682167 -21.747057
v 9.184402 -0.000002 -22.173107
v 9.007927 -4.682169 -21.747057
v 8.485281 -9.184404 -20.485281
v 7.636551 -13.333687 -18.436262
v 6.494353 -16.970564 -15.678754
v 5.102581 -19.955271 -12.318716
v 3.514719 -22.173107 -8.485280
v 1.791788 -23.538845 -4.325757
v 2.601273 23.538845 -3.893082
v 5.102581 22.173107 -7.636554
v 7.407799 19.955271 -11.086555
v 9.428339 16.970560 -14.110507
v 11.086553 13.333685 -16.592199
v 12.318718 9.184402 -18.436264
v 13.077482 4.682167 -19.571835
v 13.333686 -0.000002 -19.955267
v 13.077482 -4.682169 -19.571835
v 12.318718 -9.184403 -18.436264
v 11.086553 -13.333687 -16.592196
v 9.428339 -16.970564 -14.110505
v 7.407799 -19.955271 -11.086551
v 5.102581 -22.173107 -7.636550
v 2.601273 -23.538845 -3.893078
v 3.310792 23.538845 -3.310794
v 6.494353 22.173107 -6.494354
v 9.428339 19.955271 -9.428339
v 12.000000 16.970562 -12.000001
v 14.110505 13.333685 -14.110505
v 15.678753 9.184402 -15.678756
v 16.644478 4.682167 -16.644476
v 16.970562 -0.000001 -16.970558
v 16.644478 -4.682169 -16.644476
v 15.678753 -9.184403 -15.678754
v 14.110505 -13.333687 -14.110503
v 12.000000 -16.970562 -11.999999
v 9.428339 -19.955271 -9.428335
v 6.494353 -22.173107 -6.494350
v 3.310792 -23.538845 -3.310790
v 3.893080 23.538845 -2.601275
v 7.636552 22.173107 -5.102582
v 11.086554 19.955271 -7.407798
v 14.110506 16.970562 -9.428340
v 16.592199 13.333685 -11.086553
v 18.436264 9.184402 -12.318721
v 19.571835 4.682167 -13.077480
v 19.955269 -0.000001 -13.333680
v 19.571835 -4.682169 -13.077480
v 18.436264 -9.184403 -12.318719
v 16.592199 -13.333687 -11.086551
v 14.110506 -16.970562 -9.428338
v 11.086554 -19.955271 -7.407795
v 7.636552 -22.173107 -5.102578
v 3.893080 -23.538845 -2.601271
v 4.325758 23.538845 -1.791790
v 8.485281 22.173107 -3.514720
v 12.318718 19.955271 -5.102581
v 15.678755 16.970562 -6.494354
v 18.436264 13.333685 -7.636549
v 20.485279 9.184402 -8.485283
v 21.747055 4.682168 -9.007923
v 22.173105 -0.000001 -9.184397
v 21.747055 -4.682168 -9.007923
v 20.485279 -9.184403 -8.485281
v 18.436264 -13.333687 -7.636547
v 15.678755 -16.970562 -6.494351
v 12.318718 -19.955271 -5.102578
v 8.485281 -22.173107 -3.514716
v 4.325758 -23.538845 -1.791786
v 4.592200 23.538845 -0.913447
v 9.007926 22.173107 -1.791790
v 13.077481 19.955271 -2.601274
v 16.644478 16.970562 -3.310794
v 19.571831 13.333686 -3.893079
v 21.747055 9.184402 -4.325760
v 23.086552 4.682168 -4.592198
v 23.538841 -0.000000 -4.682163
v 23.086552 -4.682168 -4.592197
v 21.747055 -9.184402 -4.325759
v 19.571831 -13.333686 -3.893077
v 16.644478 -16.970562 -3.310792
v 13.077481 -19.955271 -2.601271
v 9.007926 -22.173107 -1.791786
v 4.592200 -23.538845 -0.913443
v 4.682166 23.538845 -0.000002
v 9.184402 22.173107 -0.000001
v 13.333683 19.955271 -0.000001
v 16.970562 16.970562 -0.000001
v 19.955265 13.333686 0.000001
v 22.173107 9.184402 -0.000002
v 23.538843 4.682168 0.000002
v 23.999992 0.000000 0.000004
v 23.538843 -4.682168 0.000002
v 22.173107 -9.184402 -0.000000
v 19.955265 -13.333686 0.000003
v 16.970562 -16.970562 0.000001
v 13.333683 -19.955271 0.000003
v 9.184402 -22.173107 0.000003
v 4.682166 -23.538845 0.000002
v 4.592200 23.538845 0.913444
v 9.007926 22.173107 1.791786
v 13.077480 19.955271 2.601273
v 16.644476 16.970562 3.310791
v 19.571831 13.333686 3.893081
v 21.747055 9.184402 4.325758
v 23.086550 4.682168 4.592203
v 23.538837 0.000000 4.682170
v 23.086550 -4.682168 4.592204
v 21.747055 -9.184402 4.325758
v 19.571831 -13.333686 3.893083
v 16.644476 -16.970562 3.310793
v 13.077480 -19.955271 2.601275
v 9.007926 -22.173107 1.791790
v 4.592200 -23.538845 0.913448
v 4.325757 23.538845 1.791786
v 8.485281 22.173107 3.514717
v 12.318715 19.955271 5.102580
v 15.678753 16.970562 6.494350
v 18.436260 13.333687 7.636551
v 20.485279 9.184403 8.485278
v 21.747053 4.682168 9.007927
v 22.173098 0.000001 9.184402
v 21.747053 -4.682168 9.007927
v 20.485279 -9.184402 8.485280
v 18.436260 -13.333685 7.636553
v 15.678753 -16.970562 6.494353
v 12.318715 -19.955271 5.102582
v 8.485281 -22.173107 3.514721
v 4.325757 -23.538845 1.791790
v 3.893078 23.538845 2.601270
v 7.636550 22.173107 5.102579
v 11.086550 19.955271 7.407796
v 14.110505 16.970562 9.428337
v 16.592196 13.333687 11.086552
v 18.436264 9.184403 12.318715
v 19.571831 4.682169 13.077481
v 19.955259 0.000001 13.333685
v 19.571831 -4.682167 13.077481
v 18.436264 -9.184402 12.318717
v 16.592196 -13.333685 11.086554
v 14.110505 -16.970562 9.428339
v 11.086550 -19.955271 7.407799
v 7.636550 -22.173107 5.102583
v 3.893078 -23.538845 2.601274
v 3.310791 23.538845 3.310789
v 6.494351 22.173107 6.494350
v 9.428334 19.955271 9.428336
v 11.999998 16.970562 11.999997
v 14.110500 13.333687 14.110503
v 15.678753 9.184403 15.678751
v 16.644474 4.682169 16.644476
v 16.970551 0.000001 16.970560
v 16.644474 -4.682167 16.644476
v 15.678753 -9.184402 15.678753
v 14.110500 -13.333685 14.110505
v 11.999998 -16.970562 11.999999
v 9.428334 -19.955271 9.428340
v 6.494351 -22.173107 6.494354
v 3.310791 -23.538845 3.310793
v 2.601272 23.538845 3.893076
v 5.102579 22.173107 7.636549
v 7.407794 19.955271 11.086550
v 9.428338 16.970564 14.110504
v 11.086549 13.333687 16.592196
v 12.318718 9.184403 18.436262
v 13.077477 4.682169 19.571831
v 13.333673 0.000002 19.955265
v 13.077477 -4.682167 19.571831
v 12.318718 -9.184402 18.436262
v 11.086549 -13.333685 16.592199
v 9.428338 -16.970560 14.110506
v 7.407794 -19.955271 11.086554
v 5.102579 -22.173107 7.636553
v 2.601272 -23.538845 3.893080
v 1.791787 23.538845 4.325755
v 3.514717 22.173107 8.485278
v 5.102576 19.955271 12.318713
v 6.494352 16.970564 15.678752
v 7.636547 13.333687 18.436258
v 8.485281 9.184404 20.485275
v 9.007921 4.682169 21.747053
v 9.184391 0.000002 22.173100
v 9.007921 -4.682167 21.747053
v 8.485281 -9.184401 20.485275
v 7.636547 -13.333685 18.436262
v 6.494352 -16.970560 15.678754
v 5.102576 -19.955271 12.318717
v 3.514717 -22.173107 8.485282
v 1.791787 -23.538845 4.325759
v 0.913445 23.538845 4.592196
v 1.791786 22.173107 9.007922
v 2.601270 19.955273 13.077476
v 3.310792 16.970564 16.644474
v 3.893076 13.333688 19.571827
v 4.325759 9.184404 21.747053
v 4.592196 4.682170 23.086548
v 4.682158 0.000002 23.538834
v 4.592196 -4.682166 23.086548
v 4.325759 -9.184401 21.747053
v 3.893076 -13.333684 19.571831
v 3.310792 -16.970560 16.644478
v 2.601270 -19.955269 13.077479
v 1.791786 -22.173107 9.007926
v 0.913445 -23.538845 4.592200
v 0.000000 23.538845 4.682163
v -0.000001 22.173107 9.184399
v -0.000002 19.955273 13.333677
v 0.000000 16.970564 16.970558
v -0.000003 13.333688 19.955261
v 0.000001 9.184404 22.173103
v -0.000003 4.682170 23.538839
v -0.000008 0.000002 23.999985
v -0.000003 -4.682166 23.538839
v 0.000001 -9.184401 22.173103
v -0.000003 -13.333684 19.955265
v 0.000000 -16.970560 16.970562
v -0.000002 -19.955269 13.333681
v -0.000001 -22.173107 9.184402
v 0.000000 -23.538845 4.682167
v -0.913445 23.538845 4.592196
v -1.791789 22.173107 9.007922
v -2.601274 19.955273 13.077474
v -3.310792 16.970564 16.644472
v -3.893081 13.333688 19.571825
v -4.325757 9.184404 21.747051
v -4.592203 4.682170 23.086546
v -4.682172 0.000002 23.538830
v -4.592203 -4.682166 23.086546
v -4.325757 -9.184401 21.747051
v -3.893081 -13.333684 19.571829
v -3.310792 -16.970560 16.644476
v -2.601274 -19.955269 13.077477
v -1.791789 -22.173107 9.007926
v -0.913445 -23.538845 4.592200
v -1.791787 23.538845 4.325754
v -3.514719 22.173107 8.485277
v -5.102580 19.955271 12.318708
v -6.494352 16.970564 15.678751
v -7.636551 13.333687 18.436255
v -8.485277 9.184404 20.485275
v -9.007927 4.682169 21.747049
v -9.184403 0.000002 22.173090
v -9.007927 -4.682167 21.747049
v -8.485277 -9.184401 20.485275
v -7.636551 -13.333685 18.436258
v -6.494352 -16.970560 15.678753
v -5.102580 -19.955271 12.318712
v -3.514719 -22.173107 8.485281
v -1.791787 -23.538845 4.325758
v -2.601271 23.538845 3.893075
v -5.102580 22.173107 7.636547
v -7.407796 19.955271 11.086544
v -9.428338 16.970564 14.110503
v -11.086552 13.333687 16.592190
v -12.318714 9.184403 18.436260
v -13.077481 4.682169 19.571827
v -13.333683 0.000002 19.955250
v -13.077481 -4.682167 19.571827
v -12.318714 -9.184402 18.436260
v -11.086552 -13.333685 16.592194
v -9.428338 -16.970560 14.110505
v -7.407796 -19.955271 11.086548
v -5.102580 -22.173107 7.636551
v -2.601271 -23.538845 3.893079
v -3.310790 23.538845 3.310788
v -6.494352 22.173107 6.494348
v -9.428335 19.955271 9.428329
v -11.999998 16.970562 11.999996
v -14.110502 13.333687 14.110497
v -15.678749 9.184403 15.678750
v -16.644474 4.682169 16.644468
v -16.970554 0.000001 16.970543
v -16.644474 -4.682167 16.644468
v -15.678749 -9.184402 15.678752
v -14.110502 -13.333685 14.110499
v -11.999998 -16.970562 11.999998
v -9.428335 -19.955271 9.428333
v -6.494352 -22.173107 6.494352
v -3.310790 -23.538845 3.310792
v -3.893077 23.538845 2.601269
v -7.636549 22.173107 5.102576
v -11.086548 19.955271 7.407790
v -14.110504 16.970562 9.428336
v -16.592196 13.333687 11.086545
v -18.436258 9.184403 12.318714
v -19.571831 4.682169 13.077473
v -19.955259 0.000001 13.333666
v -19.571831 -4.682167 13.077473
v -18.436258 -9.184402 12.318716
v -16.592196 -13.333685 11.086547
v -14.110504 -16.970562 9.428338
v -11.086548 -19.955271 7.407793
v -7.636549 -22.173107 5.102580
v -3.893077 -23.538845 2.601273
v -4.325756 23.538845 1.791784
v -8.485278 22.173107 3.514714
v -12.318710 19.955271 5.102571
v -15.678752 16.970562 6.494349
v -18.436256 13.333687 7.636543
v -20.485273 9.184403 8.485277
v -21.747051 4.682168 9.007917
v -22.173092 0.000001 9.184384
v -21.747051 -4.682168 9.007917
v -20.485273 -9.184402 8.485279
v -18.436256 -13.333685 7.636545
v -15.678752 -16.970562 6.494352
v -12.318710 -19.955271 5.102574
v -8.485278 -22.173107 3.514718
v -4.325756 -23.538845 1.791788
v -4.592197 23.538845 0.913442
v -9.007923 22.173107 1.791784
v -13.077473 19.955271 2.601267
v -16.644474 16.970562 3.310790
v -19.571827 13.333686 3.893074
v -21.747051 9.184402 4.325757
v -23.086546 4.682168 4.592193
v -23.538826 0.000000 4.682153
v -23.086546 -4.682168 4.592194
v -21.747051 -9.184402 4.325758
v -19.571827 -13.333686 3.893076
v -16.644474 -16.970562 3.310792
v -13.077473 -19.955271 2.601269
v -9.007923 -22.173107 1.791788
v -4.592197 -23.538845 0.913446
v -4.682163 23.538845 -0.000002
v -9.184398 22.173107 -0.000003
v -13.333674 19.955271 -0.000006
v -16.970558 16.970562 -0.000002
v -19.955261 13.333686 -0.000005
v -22.173100 9.184402 -0.000001
v -23.538836 4.682168 -0.000006
v -23.999977 -0.000000 -0.000011
v -23.538836 -4.682168 -0.000006
v -22.173100 -9.184402 0.000001
v -19.955261 -13.333686 -0.000003
v -16.970558 -16.970562 0.000000
v -13.333674 -19.955271 -0.000002
v -9.184398 -22.173107 0.000001
v -4.682163 -23.538845 0.000002
v -4.592197 23.538845 -0.913447
v -9.007922 22.173107 -1.791790
v -13.077471 19.955271 -2.601275
v -16.644474 16.970562 -3.310793
v -19.571823 13.333686 -3.893083
v -21.747049 9.184402 -4.325758
v -23.086540 4.682168 -4.592206
v -23.538822 -0.000000 -4.682174
v -23.086540 -4.682168 -4.592206
v -21.747049 -9.184402 -4.325758
v -19.571823 -13.333686 -3.893081
v -16.644474 -16.970562 -3.310791
v -13.077471 -19.955271 -2.601273
v -9.007922 -22.173107 -1.791786
v -4.592197 -23.538845 -0.913443
v -4.325755 23.538845 -1.791789
v -8.485277 22.173107 -3.514720
v -12.318707 19.955271 -5.102582
v -15.678751 16.970562 -6.494353
v -18.436253 13.333685 -7.636552
v -20.485271 9.184402 -8.485278
v -21.747044 4.682168 -9.007928
v -22.173082 -0.000001 -9.184403
v -21.747044 -4.682168 -9.007928
v -20.485271 -9.184403 -8.485276
v -18.436253 -13.333687 -7.636550
v -15.678751 -16.970562 -6.494350
v -12.318707 -19.955271 -5.102579
v -8.485277 -22.173107 -3.514716
v -4.325755 -23.538845 -1.791785
v -3.893076 23.538845 -2.601273
v -7.636547 22.173107 -5.102581
v -11.086541 19.955271 -7.407797
v -14.110502 16.970562 -9.428338
v -16.592188 13.333685 -11.086553
v -18.436256 9.184402 -12.318715
v -19.571821 4.682167 -13.077481
v -19.955242 -0.000001 -13.333681
v -19.571821 -4.682169 -13.077481
v -18.436256 -9.184403 -12.318713
v -16.592188 -13.333687 -11.086551
v -14.110502 -16.970562 -9.428336
v -11.086541 -19.955271 -7.407794
v -7.636547 -22.173107 -5.102577
v -3.893076 -23.538845 -2.601269
v -3.310789 23.538845 -3.310792
v -6.494349 22.173107 -6.494352
v -9.428327 19.955271 -9.428335
v -11.999996 16.970562 -11.999998
v -14.110494 13.333685 -14.110501
v -15.678747 9.184402 -15.678748
v -16.644464 4.682167 -16.644474
v -16.970537 -0.000001 -16.970552
v -16.644464 -4.682169 -16.644474
v -15.678747 -9.184403 -15.678746
v -14.110494 -13.333687 -14.110499
v -11.999996 -16.970562 -11.999996
v -9.428327 -19.955271 -9.428331
v -6.494349 -22.173107 -6.494348
v -3.310789 -23.538845 -3.310788
v -2.601270 23.538845 -3.893078
v -5.102577 22.173107 -7.636550
v -7.407787 19.955271 -11.086548
v -9.428335 16.970560 -14.110505
v -11.086542 13.333685 -16.592194
v -12.318712 9.184402 -18.436256
v -13.077470 4.682167 -19.571827
v -13.333662 -0.000002 -19.955254
v -13.077470 -4.682169 -19.571827
v -12.318712 -9.184403 -18.436256
v -11.086542 -13.333687 -16.592190
v -9.428335 -16.970564 -14.110503
v -7.407787 -19.955271 -11.086544
v -5.102577 -22.173107 -7.636546
v -2.601270 -23.538845 -3.893074
v -1.791786 23.538845 -4.325756
v -3.514716 22.173107 -8.485279
v -5.102571 19.955271 -12.318710
v -6.494349 16.970560 -15.678753
v -7.636541 13.333685 -18.436256
v -8.485276 9.184401 -20.485271
v -9.007915 4.682167 -21.747047
v -9.184381 -0.000002 -22.173086
v -9.007915 -4.682169 -21.747047
v -8.485276 -9.184404 -20.485271
v -7.636541 -13.333687 -18.436253
v -6.494349 -16.970564 -15.678751
v -5.102571 -19.955271 -12.318707
v -3.514716 -22.173107 -8.485275
v -1.791786 -23.538845 -4.325752
v -0.913444 23.538845 -4.592198
v -1.791785 22.173107 -9.007924
v -2.601265 19.955269 -13.077471
v -3.310790 16.970560 -16.644476
v -3.893072 13.333684 -19.571823
v -4.325756 9.184401 -21.747047
v -4.592192 4.682166 -23.086540
v -4.682151 -0.000002 -23.538820
v -4.592192 -4.682170 -23.086540
v -4.325756 -9.184404 -21.747047
v -3.893072 -13.333688 -19.571819
v -3.310790 -16.970564 -16.644472
v -2.601265 -19.955273 -13.077467
v -1.791785 -22.173107 -9.007920
v -0.913444 -23.538845 -4.592194
v 0.000000 23.538845 -4.682164
v 0.000002 22.173107 -9.184399
v 0.000002 16.970560 -16.970560
v 0.000001 9.184401 -22.173096
v 0.000001 -9.184404 -22.173096
v 0.000002 -16.970564 -16.970556
v 0.000005 -19.955273 -13.333667
v 0.000002 -22.173107 -9.184395
v 0.000000 -23.538845 -4.682160
vn 0.0938 0.2890 -0.9527
vn 0.0286 -0.9565 -0.2902
vn 0.0975 0.0975 -0.9904
vn 0.0097 0.9951 -0.0980
vn 0.0097 -0.9951 -0.0980
vn 0.0975 -0.0976 -0.9904
vn 0.0286 0.9565 -0.2902
vn 0.0938 -0.2890 -0.9527
vn 0.0464 0.8810 -0.4709
vn 0.0865 -0.4696 -0.8786
vn 0.0624 0.7715 -0.6332
vn 0.0759 -0.6326 -0.7708
vn 0.0759 0.6326 -0.7708
vn 0.0624 -0.7715 -0.6332
vn 0.0865 0.4696 -0.8786
vn 0.0464 -0.8810 -0.4709
vn 0.2563 0.4696 -0.8448
vn 0.1374 -0.8810 -0.4528
vn 0.2779 0.2890 -0.9161
vn 0.0846 -0.9565 -0.2790
vn 0.2889 0.0975 -0.9524
vn 0.0286 0.9951 -0.0942
vn 0.0286 -0.9951 -0.0942
vn 0.2889 -0.0975 -0.9524
vn 0.0846 0.9565 -0.2790
vn 0.2779 -0.2890 -0.9161
vn 0.1374 0.8810 -0.4528
vn 0.2563 -0.4696 -0.8448
vn 0.1847 0.7715 -0.6088
vn 0.2248 -0.6326 -0.7412
vn 0.2248 0.6326 -0.7412
vn 0.1847 -0.7715 -0.6088
vn 0.4513 -0.2890 -0.8443
vn 0.2230 0.8810 -0.4173
vn 0.4162 -0.4696 -0.7786
vn 0.2999 0.7715 -0.5611
vn 0.3651 -0.6326 -0.6831
vn 0.3651 0.6326 -0.6831
vn 0.2999 -0.7715 -0.5611
vn 0.4162 0.4696 -0.7786
vn 0.2230 -0.8810 -0.4173
vn 0.4513 0.2890 -0.8443
vn 0.1374 -0.9565 -0.2571
vn 0.4691 0.0975 -0.8777
vn 0.0464 0.9951 -0.0869
vn 0.0464 -0.9951 -0.0869
vn 0.4691 -0.0975 -0.8777
vn 0.1374 0.9565 -0.2571
vn 0.3002 -0.8810 -0.3658
vn 0.6073 0.2890 -0.7400
vn 0.1850 -0.9565 -0.2254
vn 0.6314 0.0975 -0.7693
vn 0.0625 0.9951 -0.0761
vn 0.0625 -0.9951 -0.0761
vn 0.6314 -0.0975 -0.7693
vn 0.1850 0.9565 -0.2254
vn 0.6073 -0.2890 -0.7400
vn 0.3002 0.8810 -0.3658
vn 0.5601 -0.4696 -0.6825
vn 0.4036 0.7715 -0.4918
vn 0.4913 -0.6326 -0.5987
vn 0.4913 0.6326 -0.5987
vn 0.4036 -0.7715 -0.4918
vn 0.5601 0.4696 -0.6825
vn 0.3658 0.8810 -0.3002
vn 0.6825 -0.4696 -0.5601
vn 0.4918 0.7715 -0.4036
vn 0.5987 -0.6326 -0.4913
vn 0.5987 0.6326 -0.4913
vn 0.4918 -0.7715 -0.4036
vn 0.6825 0.4696 -0.5601
vn 0.3658 -0.8810 -0.3002
vn 0.7400 0.2890 -0.6073
vn 0.2254 -0.9565 -0.1850
vn 0.7693 0.0975 -0.6314
vn 0.0761 0.9951 -0.0625
vn 0.0761 -0.9951 -0.0625
vn 0.7693 -0.0975 -0.6314
vn 0.2254 0.9565 -0.1850
vn 0.7400 -0.2890 -0.6073
vn 0.8443 0.2890 -0.4513
vn 0.2571 -0.9565 -0.1374
vn 0.8777 0.0975 -0.4691
vn 0.0869 0.9951 -0.0464
vn 0.0869 -0.9951 -0.0464
vn 0.8777 -0.0975 -0.4691
vn 0.2571 0.9565 -0.1374
vn 0.8443 -0.2890 -0.4513
vn 0.4173 0.8810 -0.2230
vn 0.7786 -0.4696 -0.4162
vn 0.5611 0.7715 -0.2999
vn 0.6831 -0.6326 -0.3651
vn 0.6831 0.6326 -0.3651
vn 0.5611 -0.7715 -0.2999
vn 0.7786 0.4696 -0.4162
vn 0.4173 -0.8810 -0.2230
vn 0.8448 -0.4696 -0.2563
vn 0.6088 0.7715 -0.1847
vn 0.7412 -0.6326 -0.2248
vn 0.7412 0.6326 -0.2248
vn 0.6088 -0.7715 -0.1847
vn 0.8448 0.4696 -0.2563
vn 0.4528 -0.8810 -0.1374
vn 0.9161 0.2890 -0.2779
vn 0.2790 -0.9565 -0.0846
vn 0.9524 0.0975 -0.2889
vn 0.0942 0.9951 -0.0286
vn 0.0942 -0.9951 -0.0286
vn 0.9524 -0.0975 -0.2889
vn 0.9524 -0.0976 -0.2889
vn 0.2790 0.9565 -0.0846
vn 0.9161 -0.2890 -0.2779
vn 0.4528 0.8810 -0.1374
vn 0.2902 -0.9565 -0.0286
vn 0.9904 0.0975 -0.0975
vn 0.0980 0.9951 -0.0096
vn 0.0980 -0.9951 -0.0097
vn 0.9904 -0.0975 -0.0975
vn 0.2902 0.9565 -0.0286
vn 0.9527 -0.2890 -0.0938
vn 0.4709 0.8810 -0.0464
vn 0.8786 -0.4696 -0.0865
vn 0.6332 0.7715 -0.0624
vn 0.7708 -0.6326 -0.0759
vn 0.7708 0.6326 -0.0759
vn 0.6332 -0.7715 -0.0624
vn 0.8786 0.4696 -0.0865
vn 0.4709 -0.8810 -0.0464
vn 0.9527 0.2890 -0.0938
vn 0.7708 -0.6326 0.0759
vn 0.7708 0.6326 0.0759
vn 0.6332 -0.7715 0.0624
vn 0.8786 0.4696 0.0865
vn 0.4709 -0.8810 0.0464
vn 0.9527 0.2890 0.0938
vn 0.2902 -0.9565 0.0286
vn 0.9904 0.0975 0.0975
vn 0.9904 0.0975 0.0976
vn 0.0980 0.9951 0.0096
vn 0.0980 -0.9951 0.0097
vn 0.9904 -0.0975 0.0975
vn 0.2902 0.9565 0.0286
vn 0.9527 -0.2890 0.0938
vn 0.4709 0.8810 0.0464
vn 0.8786 -0.4696 0.0865
vn 0.6332 0.7715 0.0624
vn 0.0942 0.9951 0.0286
vn 0.0942 -0.9951 0.0286
vn 0.9524 -0.0975 0.2889
vn 0.2790 0.9565 0.0846
vn 0.9161 -0.2890 0.2779
vn 0.4528 0.8810 0.1374
vn 0.8448 -0.4696 0.2563
vn 0.6088 0.7715 0.1847
vn 0.7412 -0.6326 0.2248
vn 0.7412 0.6326 0.2248
vn 0.6088 -0.7715 0.1847
vn 0.8448 0.4696 0.2563
vn 0.4528 -0.8810 0.1374
vn 0.9161 0.2890 0.2779
vn 0.2790 -0.9565 0.0846
vn 0.9524 0.0975 0.2889
vn 0.6831 0.6326 0.3651
vn 0.5611 -0.7715 0.2999
vn 0.7786 0.4696 0.4162
vn 0.4173 -0.8810 0.2231
vn 0.8443 0.2890 0.4513
vn 0.2571 -0.9565 0.1374
vn 0.8777 0.0975 0.4691
vn 0.0869 0.9951 0.0464
vn 0.0869 -0.9951 0.0464
vn 0.8777 -0.0975 0.4691
vn 0.2571 0.9565 0.1374
vn 0.8443 -0.2890 0.4513
vn 0.4173 0.8810 0.2231
vn 0.7786 -0.4696 0.4162
vn 0.5611 0.7715 0.2999
vn 0.6831 -0.6326 0.3651
vn 0.7693 -0.0975 0.6314
vn 0.2254 0.9565 0.1850
vn 0.7400 -0.2890 0.6073
vn 0.3658 0.8810 0.3002
vn 0.6825 -0.4696 0.5601
vn 0.4918 0.7715 0.4036
vn 0.5987 -0.6326 0.4913
vn 0.5987 0.6326 0.4913
vn 0.4918 -0.7715 0.4036
vn 0.6825 0.4696 0.5601
vn 0.3658 -0.8810 0.3002
vn 0.7400 0.2890 0.6073
vn 0.2254 -0.9565 0.1850
vn 0.7693 0.0975 0.6314
vn 0.0761 0.9951 0.0625
vn 0.0761 -0.9951 0.0625
vn 0.4036 -0.7715 0.4918
vn 0.5601 0.4696 0.6825
vn 0.3002 -0.8810 0.3658
vn 0.6073 0.2890 0.7400
vn 0.1850 -0.9565 0.2254
vn 0.6314 0.0975 0.7693
vn 0.0625 0.9951 0.0761
vn 0.0625 -0.9951 0.0761
vn 0.6314 -0.0975 0.7693
vn 0.1850 0.9565 0.2254
vn 0.6073 -0.2890 0.7400
vn 0.3002 0.8810 0.3658
vn 0.5601 -0.4696 0.6825
vn 0.4036 0.7715 0.4918
vn 0.4913 -0.6326 0.5987
vn 0.4913 0.6326 0.5987
vn 0.1374 0.9565 0.2571
vn 0.4513 -0.2890 0.8443
vn 0.2231 0.8810 0.4173
vn 0.2230 0.8810 0.4173
vn 0.4162 -0.4696 0.7786
vn 0.2999 0.7715 0.5611
vn 0.3651 -0.6326 0.6831
vn 0.3651 0.6326 0.6831
vn 0.2999 -0.7715 0.5611
vn 0.4162 0.4696 0.7786
vn 0.2230 -0.8810 0.4173
vn 0.4513 0.2890 0.8443
vn 0.1374 -0.9565 0.2571
vn 0.4691 0.0975 0.8777
vn 0.0464 0.9951 0.0869
vn 0.0464 -0.9951 0.0869
vn 0.4691 -0.0975 0.8777
vn 0.2563 0.4696 0.8448
vn 0.1374 -0.8810 0.4528
vn 0.2779 0.2890 0.9161
vn 0.0846 -0.9565 0.2790
vn 0.2889 0.0975 0.9524
vn 0.0286 0.9951 0.0942
vn 0.0286 -0.9951 0.0942
vn 0.2889 -0.0975 0.9524
vn 0.0846 0.9565 0.2790
vn 0.2779 -0.2890 0.9161
vn 0.1374 0.8810 0.4528
vn 0.2563 -0.4696 0.8448
vn 0.1847 0.7715 0.6088
vn 0.2248 -0.6326 0.7412
vn 0.2248 0.6326 0.7412
vn 0.1847 -0.7715 0.6088
vn 0.0938 -0.2890 0.9527
vn 0.0464 0.8810 0.4709
vn 0.0865 -0.4696 0.8786
vn 0.0624 0.7715 0.6332
vn 0.0759 -0.6326 0.7708
vn 0.0759 0.6326 0.7708
vn 0.0624 -0.7715 0.6332
vn 0.0865 0.4696 0.8786
vn 0.0464 -0.8810 0.4709
vn 0.0938 0.2890 0.9527
vn 0.0286 -0.9565 0.2902
vn 0.0975 0.0975 0.9904
vn 0.0097 0.9951 0.0980
vn 0.0097 -0.9951 0.0980
vn 0.0975 -0.0975 0.9904
vn 0.0286 0.9565 0.2902
vn -0.0464 -0.8810 0.4709
vn -0.0938 0.2890 0.9527
vn -0.0286 -0.9565 0.2902
vn -0.0976 0.0975 0.9904
vn -0.0097 0.9951 0.0980
vn -0.0097 -0.9951 0.0980
vn -0.0976 -0.0975 0.9904
vn -0.0975 -0.0975 0.9904
vn -0.0286 0.9565 0.2902
vn -0.0938 -0.2890 0.9527
vn -0.0464 0.8810 0.4709
vn -0.0865 -0.4696 0.8786
vn -0.0624 0.7715 0.6332
vn -0.0759 -0.6326 0.7708
vn -0.0759 0.6326 0.7708
vn -0.0624 -0.7715 0.6332
vn -0.0865 0.4696 0.8786
vn -0.2563 -0.4696 0.8448
vn -0.1847 0.7715 0.6088
vn -0.2248 -0.6326 0.7412
vn -0.2248 0.6326 0.7412
vn -0.1847 -0.7715 0.6088
vn -0.2563 0.4696 0.8448
vn -0.1374 -0.8810 0.4528
vn -0.2779 0.2890 0.9161
vn -0.0846 -0.9565 0.2790
vn -0.2889 0.0975 0.9524
vn -0.0286 0.9951 0.0942
vn -0.0286 -0.9951 0.0942
vn -0.2889 -0.0975 0.9524
vn -0.0846 0.9565 0.2790
vn -0.2779 -0.2890 0.9161
vn -0.1374 0.8810 0.4528
vn -0.1374 -0.9565 0.2571
vn -0.4691 0.0975 0.8777
vn -0.0464 0.9951 0.0869
vn -0.0464 -0.9951 0.0869
vn -0.4691 -0.0975 0.8777
vn -0.1374 0.9565 0.2571
vn -0.4513 -0.2890 0.8443
vn -0.2231 0.8810 0.4173
vn -0.4162 -0.4696 0.7786
vn -0.2999 0.7715 0.5611
vn -0.3651 -0.6326 0.6831
vn -0.3651 0.6326 0.6831
vn -0.2999 -0.7715 0.5611
vn -0.4162 0.4696 0.7786
vn -0.2230 -0.8810 0.4173
vn -0.2231 -0.8810 0.4173
vn -0.4513 0.2890 0.8443
vn -0.4036 0.7715 0.4918
vn -0.4913 -0.6326 0.5987
vn -0.4913 0.6326 0.5987
vn -0.4036 -0.7715 0.4918
vn -0.5601 0.4696 0.6825
vn -0.3002 -0.8810 0.3658
vn -0.6073 0.2890 0.7400
vn -0.1850 -0.9565 0.2254
vn -0.6314 0.0975 0.7693
vn -0.0625 0.9951 0.0761
vn -0.0625 -0.9951 0.0761
vn -0.6314 -0.0975 0.7693
vn -0.1850 0.9565 0.2254
vn -0.6073 -0.2890 0.7400
vn -0.3002 0.8810 0.3658
vn -0.5601 -0.4696 0.6825
vn -0.7693 0.0975 0.6314
vn -0.0761 0.9951 0.0625
vn -0.0761 -0.9951 0.0625
vn -0.7693 -0.0975 0.6314
vn -0.2254 0.9565 0.1850
vn -0.7400 -0.2890 0.6073
vn -0.3658 0.8810 0.3002
vn -0.6825 -0.4696 0.5601
vn -0.4918 0.7715 0.4036
vn -0.5987 -0.6326 0.4913
vn -0.5987 0.6326 0.4913
vn -0.4918 -0.7715 0.4036
vn -0.6825 0.4696 0.5601
vn -0.3658 -0.8810 0.3002
vn -0.7400 0.2890 0.6073
vn -0.2254 -0.9565 0.1850
vn -0.6831 -0.6326 0.3651
vn -0.6831 0.6326 0.3651
vn -0.5611 -0.7715 0.2999
vn -0.7786 0.4696 0.4162
vn -0.4173 -0.8810 0.2231
vn -0.4173 -0.8810 0.2230
vn -0.8443 0.2890 0.4513
vn -0.2571 -0.9565 0.1374
vn -0.8777 0.0975 0.4691
vn -0.0869 0.9951 0.0464
vn -0.0869 -0.9951 0.0464
vn -0.8777 -0.0975 0.4691
vn -0.2571 0.9565 0.1374
vn -0.8443 -0.2890 0.4513
vn -0.4173 0.8810 0.2230
vn -0.7786 -0.4696 0.4162
vn -0.5611 0.7715 0.2999
vn -0.0942 0.9951 0.0286
vn -0.0942 -0.9951 0.0286
vn -0.9524 -0.0975 0.2889
vn -0.2790 0.9565 0.0846
vn -0.9161 -0.2890 0.2779
vn -0.4528 0.8810 0.1374
vn -0.8448 -0.4696 0.2563
vn -0.6088 0.7715 0.1847
vn -0.7412 -0.6326 0.2248
vn -0.7412 0.6326 0.2248
vn -0.6088 -0.7715 0.1847
vn -0.8448 0.4696 0.2563
vn -0.4528 -0.8810 0.1374
vn -0.9161 0.2890 0.2779
vn -0.2790 -0.9565 0.0846
vn -0.9524 0.0975 0.2889
vn -0.7708 0.6326 0.0759
vn -0.6332 -0.7715 0.0624
vn -0.8786 0.4696 0.0865
vn -0.4709 -0.8810 0.0464
vn -0.9527 0.2890 0.0938
vn -0.2902 -0.9565 0.0286
vn -0.9904 0.0975 0.0975
vn -0.0980 0.9951 0.0097
vn -0.0980 -0.9951 0.0097
vn -0.9904 -0.0975 0.0975
vn -0.2902 0.9565 0.0286
vn -0.9527 -0.2890 0.0938
vn -0.4709 0.8810 0.0464
vn -0.8786 -0.4696 0.0865
vn -0.6332 0.7715 0.0624
vn -0.7708 -0.6326 0.0759
vn -0.9904 -0.0975 -0.0976
vn -0.2902 0.9565 -0.0286
vn -0.9527 -0.2890 -0.0938
vn -0.4709 0.8810 -0.0464
vn -0.8786 -0.4696 -0.0865
vn -0.6332 0.7715 -0.0624
vn -0.7708 -0.6326 -0.0759
vn -0.7708 0.6326 -0.0759
vn -0.6332 -0.7715 -0.0624
vn -0.8786 0.4696 -0.0865
vn -0.4709 -0.8810 -0.0464
vn -0.9527 0.2890 -0.0938
vn -0.2902 -0.9565 -0.0286
vn -0.9904 0.0975 -0.0976
vn -0.0980 0.9951 -0.0097
vn -0.0980 -0.9951 -0.0097
vn -0.6088 -0.7715 -0.1847
vn -0.8448 0.4696 -0.2563
vn -0.4528 -0.8810 -0.1374
vn -0.9161 0.2890 -0.2779
vn -0.2790 -0.9565 -0.0846
vn -0.9524 0.0975 -0.2889
vn -0.0942 0.9951 -0.0286
vn -0.0942 -0.9951 -0.0286
vn -0.9524 -0.0975 -0.2889
vn -0.2790 0.9565 -0.0846
vn -0.9161 -0.2890 -0.2779
vn -0.4528 0.8810 -0.1374
vn -0.8448 -0.4696 -0.2563
vn -0.6088 0.7715 -0.1847
vn -0.7412 -0.6326 -0.2248
vn -0.7412 0.6326 -0.2248
vn -0.8443 -0.2890 -0.4513
vn -0.4173 0.8810 -0.2230
vn -0.4173 0.8810 -0.2231
vn -0.7786 -0.4696 -0.4162
vn -0.5611 0.7715 -0.2999
vn -0.6831 -0.6326 -0.3651
vn -0.6831 0.6326 -0.3651
vn -0.5611 -0.7715 -0.2999
vn -0.7786 0.4696 -0.4162
vn -0.4173 -0.8810 -0.2230
vn -0.4173 -0.8810 -0.2231
vn -0.8443 0.2890 -0.4513
vn -0.2571 -0.9565 -0.1374
vn -0.8777 0.0975 -0.4691
vn -0.0869 0.9951 -0.0464
vn -0.0869 -0.9951 -0.0464
vn -0.8777 -0.0975 -0.4691
vn -0.2571 0.9565 -0.1374
vn -0.3658 -0.8810 -0.3002
vn -0.7400 0.2890 -0.6073
vn -0.2254 -0.9565 -0.1850
vn -0.7693 0.0975 -0.6314
vn -0.0761 0.9951 -0.0625
vn -0.0761 -0.9951 -0.0625
vn -0.7693 -0.0975 -0.6314
vn -0.2254 0.9565 -0.1850
vn -0.7400 -0.2890 -0.6073
vn -0.3658 0.8810 -0.3002
vn -0.6825 -0.4696 -0.5601
vn -0.4918 0.7715 -0.4036
vn -0.5987 -0.6326 -0.4913
vn -0.5987 0.6326 -0.4913
vn -0.4918 -0.7715 -0.4036
vn -0.6825 0.4696 -0.5601
vn -0.3002 0.8810 -0.3658
vn -0.5601 -0.4696 -0.6825
vn -0.4036 0.7715 -0.4918
vn -0.4913 -0.6326 -0.5987
vn -0.4913 0.6326 -0.5987
vn -0.4036 -0.7715 -0.4918
vn -0.5601 0.4696 -0.6825
vn -0.3002 -0.8810 -0.3658
vn -0.6073 0.2890 -0.7400
vn -0.1850 -0.9565 -0.2254
vn -0.6314 0.0975 -0.7693
vn -0.0625 0.9951 -0.0761
vn -0.0625 -0.9951 -0.0761
vn -0.6314 -0.0975 -0.7693
vn -0.1850 0.9565 -0.2254
vn -0.6073 -0.2890 -0.7400
vn -0.4513 0.2890 -0.8443
vn -0.1374 -0.9565 -0.2571
vn -0.4691 0.0975 -0.8777
vn -0.0464 0.9951 -0.0869
vn -0.0464 -0.9951 -0.0869
vn -0.4691 -0.0975 -0.8777
vn -0.1374 0.9565 -0.2571
vn -0.4513 -0.2890 -0.8443
vn -0.2230 0.8810 -0.4173
vn -0.4162 -0.4696 -0.7786
vn -0.2999 0.7715 -0.5611
vn -0.3651 -0.6326 -0.6831
vn -0.3651 0.6326 -0.6831
vn -0.2999 -0.7715 -0.5611
vn -0.4162 0.4696 -0.7786
vn -0.2230 -0.8810 -0.4173
vn -0.2563 -0.4696 -0.8448
vn -0.1847 0.7715 -0.6088
vn -0.2248 -0.6326 -0.7412
vn -0.2248 0.6326 -0.7412
vn -0.1847 -0.7715 -0.6088
vn -0.2563 0.4696 -0.8448
vn -0.1374 -0.8810 -0.4528
vn -0.2779 0.2890 -0.9161
vn -0.0846 -0.9565 -0.2790
vn -0.2889 0.0975 -0.9524
vn -0.0286 0.9951 -0.0942
vn -0.0286 -0.9951 -0.0942
vn -0.2889 -0.0975 -0.9524
vn -0.0846 0.9565 -0.2790
vn -0.2779 -0.2890 -0.9161
vn -0.1374 0.8810 -0.4528
vn -0.0286 -0.9565 -0.2902
vn -0.0976 0.0975 -0.9904
vn -0.0097 0.9951 -0.0980
vn -0.0097 -0.9951 -0.0980
vn -0.0976 -0.0975 -0.9904
vn -0.0286 0.9565 -0.2902
vn -0.0938 -0.2890 -0.9527
vn -0.0464 0.8810 -0.4709
vn -0.0865 -0.4696 -0.8786
vn -0.0624 0.7715 -0.6332
vn -0.0759 -0.6326 -0.7708
vn -0.0759 0.6326 -0.7708
vn -0.0624 -0.7715 -0.6332
vn -0.0865 0.4696 -0.8786
vn -0.0464 -0.8810 -0.4709
vn -0.0938 0.2890 -0.9527
vn 0.0976 0.0975 -0.9904
vn 0.0976 -0.0975 -0.9904
vn 0.9524 0.0976 -0.2889
vn 0.9904 -0.0975 0.0976
vn 0.4173 0.8810 0.2230
vn -0.0975 0.0975 0.9904
vn -0.0976 -0.0976 -0.9904
vt 0.524691 0.481024
vt 0.490520 0.508196
vt 0.493118 0.477050
vt 0.829373 0.301814
vt 0.947342 0.320126
vt 0.928948 0.322651
vt 0.496039 0.445917
vt 0.530735 0.450288
vt 0.483166 0.664981
vt 0.465333 0.694686
vt 0.473682 0.663771
vt 0.965333 0.350648
vt 0.499636 0.414811
vt 0.538054 0.419663
vt 0.494158 0.634673
vt 0.478781 0.632726
vt 0.504594 0.383760
vt 0.547888 0.389255
vt 0.502049 0.604097
vt 0.482445 0.601623
vt 0.512599 0.352831
vt 0.563050 0.359313
vt 0.508384 0.573387
vt 0.485400 0.570491
vt 0.529404 0.322261
vt 0.591649 0.330585
vt 0.513950 0.542610
vt 0.488013 0.539346
vt 0.592541 0.293681
vt 0.664264 0.306356
vt 0.519248 0.511811
vt 0.875044 0.291968
vt 0.461544 0.507209
vt 0.442526 0.288573
vt 0.981345 0.288245
vt 0.461150 0.475961
vt 0.968084 0.319414
vt 0.460707 0.444714
vt 0.464076 0.663443
vt 0.460158 0.413467
vt 0.463311 0.632198
vt 0.459395 0.382222
vt 0.462760 0.600951
vt 0.458146 0.350979
vt 0.462316 0.569704
vt 0.455425 0.319745
vt 0.461922 0.538456
vt 0.414500 0.384833
vt 0.443087 0.602096
vt 0.404352 0.354113
vt 0.439247 0.571046
vt 0.383551 0.323962
vt 0.435855 0.539972
vt 0.313627 0.296637
vt 0.432606 0.508891
vt 0.072663 0.294209
vt -0.018655 0.288245
vt 0.429244 0.477816
vt -0.011549 0.320621
vt -0.031916 0.319414
vt 0.425473 0.446762
vt 0.454489 0.664003
vt -0.034667 0.350648
vt 0.420846 0.415752
vt 0.447854 0.633098
vt 0.106788 0.304757
vt 0.403983 0.513172
vt 0.397840 0.482515
vt 0.005889 0.323571
vt 0.391048 0.451921
vt 0.445060 0.665440
vt 0.382872 0.421463
vt 0.432518 0.635413
vt 0.371984 0.391272
vt 0.423519 0.605035
vt 0.355450 0.361645
vt 0.416307 0.574483
vt 0.325234 0.333439
vt 0.409984 0.543843
vt 0.254466 0.310045
vt 0.404133 0.609711
vt 0.333004 0.400844
vt 0.313030 0.372436
vt 0.393585 0.579927
vt 0.280488 0.345981
vt 0.384443 0.549943
vt 0.219893 0.324598
vt 0.375885 0.519877
vt 0.116005 0.316504
vt 0.367270 0.489818
vt 0.018999 0.327894
vt 0.357938 0.459862
vt 0.435936 0.667728
vt 0.347006 0.430132
vt 0.417408 0.639104
vt 0.348413 0.528750
vt 0.337689 0.499386
vt 0.115093 0.328443
vt 0.027582 0.333162
vt 0.326360 0.470133
vt 0.427271 0.670825
vt 0.313500 0.441160
vt 0.402624 0.644114
vt 0.297707 0.412732
vt 0.384986 0.616035
vt 0.276508 0.385339
vt 0.371124 0.587247
vt 0.245080 0.360026
vt 0.359291 0.558086
vt 0.194253 0.339267
vt 0.265605 0.426166
vt 0.244516 0.399441
vt 0.348907 0.596278
vt 0.215451 0.374650
vt 0.334503 0.568039
vt 0.172521 0.353662
vt 0.321544 0.539483
vt 0.109269 0.340183
vt 0.309074 0.510821
vt 0.032133 0.338988
vt 0.296261 0.482233
vt 0.419239 0.674673
vt 0.282189 0.453921
vt 0.388267 0.650367
vt 0.366100 0.623896
vt 0.033357 0.345054
vt 0.281241 0.523702
vt 0.267385 0.495659
vt 0.412040 0.679197
vt 0.252663 0.467830
vt 0.374443 0.657774
vt 0.235970 0.440492
vt 0.347458 0.633162
vt 0.215708 0.414066
vt 0.326847 0.606828
vt 0.189316 0.389289
vt 0.309954 0.579540
vt 0.152682 0.367557
vt 0.295128 0.551736
vt 0.100661 0.351502
vt 0.165258 0.403561
vt 0.304766 0.618690
vt 0.285413 0.592308
vt 0.133773 0.380769
vt 0.268902 0.565155
vt 0.090271 0.362236
vt 0.253886 0.537607
vt 0.031931 0.351106
vt 0.239356 0.509930
vt 0.405913 0.684305
vt 0.224412 0.482362
vt 0.361270 0.666230
vt 0.208064 0.455167
vt 0.328995 0.643693
vt 0.188999 0.428705
vt 0.401155 0.689883
vt 0.028419 0.356946
vt 0.196910 0.497044
vt 0.348898 0.675625
vt 0.181228 0.469731
vt 0.310583 0.655337
vt 0.163574 0.442954
vt 0.282383 0.631642
vt 0.142385 0.417168
vt 0.260536 0.606045
vt 0.115268 0.393138
vt 0.242497 0.579374
vt 0.078624 0.372247
vt 0.226614 0.552115
vt 0.211731 0.524588
vt 0.259267 0.645448
vt 0.234841 0.620431
vt 0.120115 0.429858
vt 0.096859 0.404506
vt 0.215439 0.594008
vt 0.066025 0.381408
vt 0.198966 0.566801
vt 0.023271 0.362414
vt 0.184044 0.539188
vt 0.398141 0.695796
vt 0.169659 0.511435
vt 0.337544 0.685838
vt 0.154911 0.483777
vt 0.292008 0.667941
vt 0.138825 0.456468
vt 0.142214 0.525113
vt 0.327555 0.696739
vt 0.128667 0.496926
vt 0.272919 0.681348
vt 0.114310 0.468933
vt 0.234768 0.659847
vt 0.098062 0.441397
vt 0.207673 0.635108
vt 0.078358 0.414720
vt 0.187149 0.608639
vt 0.052669 0.389601
vt 0.170433 0.581218
vt 0.016838 0.367379
vt 0.155835 0.553283
vt 0.397348 0.701873
vt 0.075974 0.451570
vt 0.059656 0.423633
vt 0.156943 0.622788
vt 0.038695 0.396715
vt 0.140488 0.594880
vt 0.009400 0.371735
vt 0.126672 0.566410
vt 0.399372 0.707902
vt 0.114201 0.537657
vt 0.319549 0.708185
vt 0.102154 0.508816
vt 0.252706 0.695392
vt 0.089716 0.480056
vt 0.207884 0.674525
vt 0.178149 0.649651
vt 0.314729 0.720002
vt 0.075136 0.519095
vt 0.230215 0.709885
vt 0.064841 0.489560
vt 0.177012 0.689062
vt 0.053699 0.460171
vt 0.145112 0.663514
vt 0.040702 0.431104
vt 0.124072 0.635886
vt 0.024217 0.402652
vt 0.108636 0.607247
vt 0.001185 0.375393
vt 0.096204 0.578082
vt 0.404911 0.713616
vt 0.085345 0.548644
vt 0.087842 0.647247
vt 0.009338 0.407324
vt 0.074515 0.617720
vt -0.007616 0.378284
vt 0.064221 0.587791
vt 0.414647 0.718677
vt 0.055501 0.557657
vt 0.315748 0.731941
vt 0.047498 0.527429
vt 0.202939 0.724572
vt 0.039587 0.497190
vt 0.139564 0.702824
vt 0.031169 0.467016
vt 0.107169 0.675964
vt 0.021489 0.437007
vt 0.019248 0.533523
vt 0.329373 0.743520
vt 0.164263 0.738978
vt 0.013950 0.502723
vt 0.091649 0.714749
vt 0.008384 0.471947
vt 0.063050 0.686021
vt 0.002049 0.441236
vt 0.047888 0.656079
vt -0.005842 0.410660
vt 0.038054 0.625671
vt -0.016834 0.380353
vt 0.030734 0.595045
vt 0.428948 0.722683
vt 0.024691 0.564310
vt -0.021219 0.412608
vt 0.004594 0.661574
vt -0.000364 0.630523
vt -0.026318 0.381562
vt -0.003961 0.599417
vt 0.447342 0.725207
vt -0.006882 0.568284
vt 0.375044 0.753366
vt -0.009481 0.537138
vt 0.092541 0.751653
vt -0.011987 0.505988
vt 0.029404 0.723072
vt -0.014600 0.474843
vt 0.012599 0.692502
vt -0.017555 0.443711
vt 0.988013 0.505988
vt 0.961544 0.538125
vt 0.961922 0.506877
vt 1.092541 0.751653
vt 0.955425 0.725588
vt 1.029403 0.723072
vt 0.962316 0.475630
vt 0.985400 0.474843
vt 1.012599 0.692502
vt 0.958146 0.694354
vt 0.982445 0.443711
vt 0.962760 0.444382
vt 0.959395 0.663112
vt 1.004594 0.661574
vt 0.963311 0.413136
vt 0.978781 0.412608
vt 0.999636 0.630523
vt 0.960158 0.631867
vt 0.964076 0.381890
vt 0.973682 0.381562
vt 0.996039 0.599417
vt 0.960706 0.600620
vt 0.468084 0.725919
vt 0.961150 0.569373
vt 0.993118 0.568284
vt 0.481346 0.757089
vt 0.990520 0.537138
vt 0.942526 0.756760
vt 0.947854 0.412235
vt 0.954489 0.381331
vt 0.920846 0.629581
vt 0.925473 0.598572
vt 0.488451 0.724712
vt 0.929244 0.567518
vt 0.572664 0.751124
vt 0.932606 0.536442
vt 0.813627 0.748696
vt 0.935855 0.505361
vt 0.883550 0.721372
vt 0.939247 0.474287
vt 0.904352 0.691220
vt 0.943087 0.443237
vt 0.914500 0.660501
vt 0.825234 0.711895
vt 0.916307 0.470851
vt 0.855450 0.683688
vt 0.923519 0.440298
vt 0.871984 0.654062
vt 0.932518 0.409921
vt 0.882872 0.623871
vt 0.945060 0.379894
vt 0.891048 0.593413
vt 0.505889 0.721762
vt 0.897840 0.562819
vt 0.606788 0.740577
vt 0.903983 0.532162
vt 0.754466 0.735289
vt 0.909984 0.501491
vt 0.847006 0.615201
vt 0.857938 0.585472
vt 0.518999 0.717440
vt 0.935936 0.377606
vt 0.867270 0.555515
vt 0.616005 0.728830
vt 0.875885 0.525457
vt 0.719893 0.720735
vt 0.884443 0.495390
vt 0.780488 0.699352
vt 0.893585 0.465407
vt 0.813030 0.672897
vt 0.904133 0.435623
vt 0.833004 0.644489
vt 0.917408 0.406230
vt 0.871124 0.458086
vt 0.776508 0.659994
vt 0.884986 0.429299
vt 0.797707 0.632601
vt 0.902624 0.401219
vt 0.813500 0.604174
vt 0.927271 0.374509
vt 0.826360 0.575201
vt 0.527583 0.712171
vt 0.837689 0.545947
vt 0.615094 0.716891
vt 0.848413 0.516584
vt 0.694253 0.706067
vt 0.859291 0.487248
vt 0.745080 0.685307
vt 0.532133 0.706345
vt 0.919239 0.370661
vt 0.809074 0.534513
vt 0.609269 0.705151
vt 0.821544 0.505851
vt 0.672521 0.691671
vt 0.834503 0.477295
vt 0.715451 0.670684
vt 0.848907 0.449056
vt 0.744516 0.645892
vt 0.866100 0.421438
vt 0.765605 0.619168
vt 0.888267 0.394966
vt 0.782189 0.591413
vt 0.796261 0.563101
vt 0.689316 0.656044
vt 0.715708 0.631267
vt 0.826847 0.438506
vt 0.847458 0.412171
vt 0.735970 0.604842
vt 0.874443 0.387560
vt 0.752663 0.577503
vt 0.912040 0.366137
vt 0.767385 0.549674
vt 0.533357 0.700280
vt 0.781241 0.521632
vt 0.600661 0.693832
vt 0.795128 0.493597
vt 0.652682 0.677777
vt 0.809954 0.465794
vt 0.753886 0.507727
vt 0.590271 0.683097
vt 0.768902 0.480178
vt 0.633773 0.664564
vt 0.785413 0.453026
vt 0.665258 0.641773
vt 0.804766 0.426644
vt 0.688999 0.616628
vt 0.828995 0.401641
vt 0.708064 0.590167
vt 0.861270 0.379103
vt 0.724412 0.562971
vt 0.905913 0.361029
vt 0.739356 0.535403
vt 0.531931 0.694228
vt 0.782383 0.413692
vt 0.810583 0.389996
vt 0.681228 0.575603
vt 0.848898 0.369709
vt 0.696910 0.548290
vt 0.901155 0.355450
vt 0.711731 0.520746
vt 0.528420 0.688388
vt 0.726614 0.493218
vt 0.578624 0.673086
vt 0.742497 0.465959
vt 0.615268 0.652196
vt 0.760536 0.439289
vt 0.642385 0.628165
vt 0.663574 0.602379
vt 0.715440 0.451325
vt 0.596859 0.640828
vt 0.734841 0.424903
vt 0.620115 0.615476
vt 0.759267 0.399885
vt 0.638825 0.588866
vt 0.792008 0.377392
vt 0.654911 0.561557
vt 0.837544 0.359496
vt 0.669659 0.533898
vt 0.898141 0.349538
vt 0.684044 0.506146
vt 0.523271 0.682920
vt 0.698966 0.478532
vt 0.566025 0.663925
vt 0.827555 0.348595
vt 0.628667 0.548408
vt 0.642214 0.520220
vt 0.897348 0.343461
vt 0.655835 0.492051
vt 0.516838 0.677954
vt 0.670433 0.464115
vt 0.552669 0.655733
vt 0.687149 0.436695
vt 0.578358 0.630613
vt 0.707673 0.410225
vt 0.598062 0.603936
vt 0.734768 0.385486
vt 0.614310 0.576401
vt 0.772919 0.363985
vt 0.538695 0.648618
vt 0.559656 0.621701
vt 0.656943 0.422546
vt 0.678149 0.395682
vt 0.575974 0.593764
vt 0.707884 0.370809
vt 0.589716 0.565278
vt 0.752706 0.349941
vt 0.602154 0.536518
vt 0.819549 0.337148
vt 0.614201 0.507676
vt 0.899372 0.337431
vt 0.626672 0.478923
vt 0.509400 0.673599
vt 0.640488 0.450453
vt 0.575136 0.526239
vt 0.585345 0.496690
vt 0.904911 0.331717
vt 0.596204 0.467252
vt 0.501185 0.669941
vt 0.608636 0.438086
vt 0.524217 0.642682
vt 0.624072 0.409448
vt 0.540702 0.614229
vt 0.645112 0.381820
vt 0.553699 0.585162
vt 0.677013 0.356272
vt 0.564841 0.555773
vt 0.730215 0.335449
vt 0.814729 0.325331
vt 0.587842 0.398086
vt 0.607170 0.369370
vt 0.531169 0.578317
vt 0.639564 0.342509
vt 0.539587 0.548144
vt 0.702939 0.320762
vt 0.547498 0.517904
vt 0.815748 0.313392
vt 0.555501 0.487677
vt 0.914647 0.326656
vt 0.564221 0.457542
vt 0.492384 0.667050
vt 0.574515 0.427614
vt 0.509338 0.638010
vt 0.521489 0.608326
s 1
usemtl 
f 4/1/1 14/2/1 15/3/1
f 481/4/2 23/5/2 482/6/2
f 4/1/3 16/7/3 5/8/3
f 474/9/4 1/10/4 9/11/4
f 8/12/5 482/6/5 23/5/5
f 5/8/6 17/13/6 6/14/6
f 475/15/7 9/11/7 10/16/7
f 6/14/8 18/17/8 478/18/8
f 2/19/9 10/16/9 11/20/9
f 478/18/10 19/21/10 7/22/10
f 476/23/11 11/20/11 12/24/11
f 7/22/12 20/25/12 479/26/12
f 3/27/13 12/24/13 13/28/13
f 479/26/14 21/29/14 480/30/14
f 477/31/15 13/28/15 14/2/15
f 480/30/16 22/32/16 481/4/16
f 13/28/17 29/33/17 14/2/17
f 22/32/18 36/34/18 37/35/18
f 15/3/19 29/33/19 30/36/19
f 22/32/20 38/37/20 23/5/20
f 15/3/21 31/38/21 16/7/21
f 9/11/22 1/10/22 24/39/22
f 8/12/23 23/5/23 38/37/23
f 16/7/24 32/40/24 17/13/24
f 9/11/25 25/41/25 10/16/25
f 17/13/26 33/42/26 18/17/26
f 10/16/27 26/43/27 11/20/27
f 18/17/28 34/44/28 19/21/28
f 11/20/29 27/45/29 12/24/29
f 19/21/30 35/46/30 20/25/30
f 12/24/31 28/47/31 13/28/31
f 21/29/32 35/46/32 36/34/32
f 32/40/33 48/48/33 33/42/33
f 25/41/34 41/49/34 26/43/34
f 34/44/35 48/48/35 49/50/35
f 26/43/36 42/51/36 27/45/36
f 35/46/37 49/50/37 50/52/37
f 27/45/38 43/53/38 28/47/38
f 36/34/39 50/52/39 51/54/39
f 28/47/40 44/55/40 29/33/40
f 36/34/41 52/56/41 37/57/41
f 29/33/42 45/58/42 30/36/42
f 37/57/43 53/59/43 38/60/43
f 30/36/44 46/61/44 31/38/44
f 24/39/45 1/10/45 39/62/45
f 8/63/46 38/60/46 53/59/46
f 32/40/47 46/61/47 47/64/47
f 24/39/48 40/65/48 25/41/48
f 51/54/49 67/66/49 52/56/49
f 45/58/50 59/67/50 60/68/50
f 52/56/51 68/69/51 53/59/51
f 46/61/52 60/68/52 61/70/52
f 39/62/53 1/10/53 54/71/53
f 8/63/54 53/59/54 68/69/54
f 46/61/55 62/72/55 47/64/55
f 39/62/56 55/73/56 40/65/56
f 47/64/57 63/74/57 48/48/57
f 40/65/58 56/75/58 41/49/58
f 49/50/59 63/74/59 64/76/59
f 41/49/60 57/77/60 42/51/60
f 49/50/61 65/78/61 50/52/61
f 42/51/62 58/79/62 43/53/62
f 50/52/63 66/80/63 51/54/63
f 43/53/64 59/67/64 44/55/64
f 55/73/65 71/81/65 56/75/65
f 64/76/66 78/82/66 79/83/66
f 56/75/67 72/84/67 57/77/67
f 64/76/68 80/85/68 65/78/68
f 58/79/69 72/84/69 73/86/69
f 65/78/70 81/87/70 66/80/70
f 58/79/71 74/88/71 59/67/71
f 67/66/72 81/87/72 82/89/72
f 60/68/73 74/88/73 75/90/73
f 67/66/74 83/91/74 68/69/74
f 61/70/75 75/90/75 76/92/75
f 54/71/76 1/10/76 69/93/76
f 8/63/77 68/69/77 83/91/77
f 61/70/78 77/94/78 62/72/78
f 54/71/79 70/95/79 55/73/79
f 62/72/80 78/82/80 63/74/80
f 75/90/81 89/96/81 90/97/81
f 83/91/82 97/98/82 98/99/82
f 76/92/83 90/97/83 91/100/83
f 69/93/84 1/10/84 84/101/84
f 8/63/85 83/91/85 98/99/85
f 76/92/86 92/102/86 77/94/86
f 69/93/87 85/103/87 70/95/87
f 77/94/88 93/104/88 78/82/88
f 70/95/89 86/105/89 71/81/89
f 79/83/90 93/104/90 94/106/90
f 71/81/91 87/107/91 72/84/91
f 79/83/92 95/108/92 80/85/92
f 73/86/93 87/107/93 88/109/93
f 80/85/94 96/110/94 81/87/94
f 73/86/95 89/96/95 74/88/95
f 81/87/96 97/98/96 82/89/96
f 94/106/97 108/111/97 109/112/97
f 86/105/98 102/113/98 87/107/98
f 94/106/99 110/114/99 95/108/99
f 88/109/100 102/113/100 103/115/100
f 96/110/101 110/114/101 111/116/101
f 88/109/102 104/117/102 89/96/102
f 97/98/103 111/116/103 112/118/103
f 90/97/104 104/117/104 105/119/104
f 97/98/105 113/120/105 98/99/105
f 91/100/106 105/119/106 106/121/106
f 84/101/107 1/10/107 99/122/107
f 8/63/108 98/99/108 113/120/108
f 91/100/109 107/123/109 92/102/110
f 85/103/111 99/122/111 100/124/111
f 92/102/112 108/111/112 93/104/112
f 85/103/113 101/125/113 86/105/113
f 112/118/114 128/126/114 113/120/114
f 106/121/115 120/127/115 121/128/115
f 99/122/116 1/10/116 114/129/116
f 8/63/117 113/120/117 128/126/117
f 106/121/118 122/130/118 107/123/118
f 100/124/119 114/129/119 115/131/119
f 107/123/120 123/132/120 108/111/120
f 100/124/121 116/133/121 101/125/121
f 109/112/122 123/132/122 124/134/122
f 101/125/123 117/135/123 102/113/123
f 109/112/124 125/136/124 110/114/124
f 103/115/125 117/135/125 118/137/125
f 111/116/126 125/136/126 126/138/126
f 103/115/127 119/139/127 104/117/127
f 111/116/128 127/140/128 112/118/128
f 105/119/129 119/139/129 120/127/129
f 124/134/130 140/141/130 125/136/130
f 118/137/131 132/142/131 133/143/131
f 126/138/132 140/141/132 141/144/132
f 118/137/133 134/145/133 119/139/133
f 126/138/134 142/146/134 127/140/134
f 120/127/135 134/145/135 135/147/135
f 127/140/136 143/148/136 128/126/136
f 121/128/137 135/147/137 136/149/138
f 114/129/139 1/10/139 129/150/139
f 8/63/140 128/126/140 143/148/140
f 121/128/141 137/151/141 122/130/141
f 114/129/142 130/152/142 115/131/142
f 122/130/143 138/153/143 123/132/143
f 115/131/144 131/154/144 116/133/144
f 124/134/145 138/153/145 139/155/145
f 116/133/146 132/142/146 117/135/146
f 129/150/147 1/10/147 144/156/147
f 8/63/148 143/148/148 158/157/148
f 136/149/149 152/158/149 137/151/149
f 129/150/150 145/159/150 130/152/150
f 137/151/151 153/160/151 138/153/151
f 131/154/152 145/159/152 146/161/152
f 139/155/153 153/160/153 154/162/153
f 131/154/154 147/163/154 132/142/154
f 139/155/155 155/164/155 140/141/155
f 133/143/156 147/163/156 148/165/156
f 141/144/157 155/164/157 156/166/157
f 133/143/158 149/167/158 134/145/158
f 141/144/159 157/168/159 142/146/159
f 135/147/160 149/167/160 150/169/160
f 143/148/161 157/168/161 158/157/161
f 136/149/162 150/169/162 151/170/162
f 148/165/163 162/171/163 163/172/163
f 156/166/164 170/173/164 171/174/164
f 148/165/165 164/175/165 149/167/165
f 156/166/166 172/176/166 157/168/166
f 150/169/167 164/175/167 165/177/167
f 157/168/168 173/178/168 158/157/168
f 151/170/169 165/177/169 166/179/169
f 144/156/170 1/10/170 159/180/170
f 8/63/171 158/157/171 173/178/171
f 151/170/172 167/181/172 152/158/172
f 144/156/173 160/182/173 145/159/173
f 152/158/174 168/183/174 153/160/174
f 146/161/175 160/182/175 161/184/175
f 154/162/176 168/183/176 169/185/176
f 146/161/177 162/171/177 147/163/177
f 154/162/178 170/173/178 155/164/178
f 166/179/179 182/186/179 167/181/179
f 159/180/180 175/187/180 160/182/180
f 167/181/181 183/188/181 168/183/181
f 160/182/182 176/189/182 161/184/182
f 169/185/183 183/188/183 184/190/183
f 161/184/184 177/191/184 162/171/184
f 169/185/185 185/192/185 170/173/185
f 163/172/186 177/191/186 178/193/186
f 170/173/187 186/194/187 171/174/187
f 163/172/188 179/195/188 164/175/188
f 172/176/189 186/194/189 187/196/189
f 165/177/190 179/195/190 180/197/190
f 173/178/191 187/196/191 188/198/191
f 166/179/192 180/197/192 181/199/192
f 159/180/193 1/10/193 174/200/193
f 8/63/194 173/178/194 188/198/194
f 186/194/195 200/201/195 201/202/195
f 178/193/196 194/203/196 179/195/196
f 186/194/197 202/204/197 187/196/197
f 180/197/198 194/203/198 195/205/198
f 187/196/199 203/206/199 188/198/199
f 181/199/200 195/205/200 196/207/200
f 174/200/201 1/10/201 189/208/201
f 8/63/202 188/198/202 203/206/202
f 181/199/203 197/209/203 182/186/203
f 175/187/204 189/208/204 190/210/204
f 182/186/205 198/211/205 183/188/205
f 176/189/206 190/210/206 191/212/206
f 184/190/207 198/211/207 199/213/207
f 176/189/208 192/214/208 177/191/208
f 184/190/209 200/201/209 185/192/209
f 178/193/210 192/214/210 193/215/210
f 189/208/211 205/216/211 190/210/211
f 197/209/212 213/217/212 198/211/212
f 190/210/213 206/218/214 191/212/214
f 199/213/215 213/217/215 214/219/215
f 191/212/216 207/220/216 192/214/216
f 199/213/217 215/221/217 200/201/217
f 193/215/218 207/220/218 208/222/218
f 201/202/219 215/221/219 216/223/219
f 193/215/220 209/224/220 194/203/220
f 201/202/221 217/225/221 202/204/221
f 195/205/222 209/224/222 210/226/222
f 202/204/223 218/227/223 203/206/223
f 196/207/224 210/226/224 211/228/224
f 189/208/225 1/10/225 204/229/225
f 8/63/226 203/206/226 218/227/226
f 196/207/227 212/230/227 197/209/227
f 208/222/228 224/231/228 209/224/228
f 216/223/229 232/232/229 217/225/229
f 210/226/230 224/231/230 225/233/230
f 217/225/231 233/234/231 218/227/231
f 211/228/232 225/233/232 226/235/232
f 204/229/233 1/10/233 219/236/233
f 8/63/234 218/227/234 233/234/234
f 211/228/235 227/237/235 212/230/235
f 204/229/236 220/238/236 205/216/236
f 212/230/237 228/239/237 213/217/237
f 205/216/238 221/240/238 206/218/238
f 214/219/239 228/239/239 229/241/239
f 206/218/240 222/242/240 207/220/240
f 214/219/241 230/243/241 215/221/241
f 208/222/242 222/242/242 223/244/242
f 216/223/243 230/243/243 231/245/243
f 227/237/244 243/246/244 228/239/244
f 221/240/245 235/247/245 236/248/245
f 229/241/246 243/246/246 244/249/246
f 221/240/247 237/250/247 222/242/247
f 229/241/248 245/251/248 230/243/248
f 223/244/249 237/250/249 238/252/249
f 231/245/250 245/251/250 246/253/250
f 223/244/251 239/254/251 224/231/251
f 231/245/252 247/255/252 232/232/252
f 225/233/253 239/254/253 240/256/253
f 233/234/254 247/255/254 248/257/254
f 226/235/255 240/256/255 241/258/255
f 219/236/256 1/10/256 234/259/256
f 8/63/257 233/234/257 248/257/257
f 226/235/258 242/260/258 227/237/258
f 219/236/259 235/247/259 220/238/259
f 246/253/260 262/261/260 247/255/260
f 240/256/261 254/262/261 255/263/261
f 247/255/262 263/264/262 248/257/262
f 241/258/263 255/263/263 256/265/263
f 234/259/264 1/10/264 249/266/264
f 8/63/265 248/257/265 263/264/265
f 241/258/266 257/267/266 242/260/267
f 234/259/268 250/268/268 235/247/268
f 242/260/269 258/269/269 243/246/269
f 235/247/270 251/270/270 236/248/270
f 244/249/271 258/269/271 259/271/271
f 236/248/272 252/272/272 237/250/272
f 244/249/273 260/273/273 245/251/273
f 238/252/274 252/272/274 253/274/274
f 246/253/275 260/273/275 261/275/275
f 238/252/276 254/262/276 239/254/276
f 259/276/277 273/277/277 274/278/277
f 251/279/278 267/280/278 252/281/278
f 259/276/279 275/282/279 260/283/279
f 253/284/280 267/280/280 268/285/280
f 261/286/281 275/282/281 276/287/281
f 253/284/282 269/288/282 254/289/282
f 261/286/283 277/290/283 262/291/283
f 255/292/284 269/288/284 270/293/284
f 262/291/285 278/294/285 263/295/285
f 256/296/286 270/293/286 271/297/286
f 249/266/287 1/10/287 264/298/287
f 8/12/288 263/295/288 278/294/288
f 256/296/289 272/299/289 257/300/289
f 250/268/290 264/298/290 265/301/290
f 257/300/291 273/277/291 258/302/291
f 250/268/292 266/303/292 251/279/292
f 278/294/293 292/304/293 293/305/293
f 271/297/294 285/306/294 286/307/294
f 264/298/295 1/10/295 279/308/295
f 8/12/296 278/294/296 293/305/296
f 271/297/297 287/309/297 272/299/297
f 265/301/298 279/308/298 280/310/298
f 272/299/299 288/311/299 273/277/299
f 265/301/300 281/312/300 266/303/300
f 274/278/301 288/311/301 289/313/301
f 266/303/302 282/314/302 267/280/302
f 274/278/303 290/315/303 275/282/303
f 268/285/304 282/314/304 283/316/304
f 276/287/305 290/315/305 291/317/305
f 268/285/306 284/318/306 269/288/306
f 276/287/307 292/304/307 277/290/308
f 270/293/309 284/318/309 285/306/309
f 281/312/310 297/319/310 282/314/310
f 289/313/311 305/320/311 290/315/311
f 283/316/312 297/319/312 298/321/312
f 291/317/313 305/320/313 306/322/313
f 283/316/314 299/323/314 284/318/314
f 291/317/315 307/324/315 292/304/315
f 285/306/316 299/323/316 300/325/316
f 293/305/317 307/324/317 308/326/317
f 286/307/318 300/325/318 301/327/318
f 279/308/319 1/10/319 294/328/319
f 8/12/320 293/305/320 308/326/320
f 286/307/321 302/329/321 287/309/321
f 279/308/322 295/330/322 280/310/322
f 287/309/323 303/331/323 288/311/323
f 280/310/324 296/332/324 281/312/324
f 289/313/325 303/331/325 304/333/325
f 301/327/326 315/334/326 316/335/326
f 294/328/327 1/10/327 309/336/327
f 8/12/328 308/326/328 323/337/328
f 301/327/329 317/338/329 302/329/329
f 294/328/330 310/339/330 295/330/330
f 302/329/331 318/340/331 303/331/331
f 295/330/332 311/341/332 296/332/332
f 304/333/333 318/340/333 319/342/333
f 296/332/334 312/343/334 297/319/334
f 304/333/335 320/344/335 305/320/335
f 298/321/336 312/343/336 313/345/336
f 306/322/337 320/344/337 321/346/337
f 298/321/338 314/347/338 299/323/338
f 306/322/339 322/348/339 307/324/339
f 300/325/340 314/347/340 315/334/340
f 307/324/341 323/337/341 308/326/341
f 319/342/342 335/349/342 320/344/342
f 312/343/343 328/350/343 313/345/343
f 321/346/344 335/349/344 336/351/344
f 313/345/345 329/352/345 314/347/345
f 321/346/346 337/353/347 322/348/347
f 315/334/348 329/352/348 330/354/348
f 322/348/349 338/355/349 323/337/349
f 316/335/350 330/354/350 331/356/350
f 309/336/351 1/10/351 324/357/351
f 8/12/352 323/337/352 338/355/352
f 316/335/353 332/358/353 317/338/353
f 309/336/354 325/359/354 310/339/354
f 317/338/355 333/360/355 318/340/355
f 310/339/356 326/361/356 311/341/356
f 319/342/357 333/360/357 334/362/357
f 311/341/358 327/363/358 312/343/358
f 324/357/359 1/10/359 339/364/359
f 8/12/360 338/355/360 353/365/360
f 331/356/361 347/366/361 332/358/361
f 324/357/362 340/367/362 325/359/362
f 332/358/363 348/368/363 333/360/363
f 325/359/364 341/369/364 326/361/364
f 334/362/365 348/368/365 349/370/365
f 326/361/366 342/371/366 327/363/366
f 334/362/367 350/372/367 335/349/367
f 328/350/368 342/371/368 343/373/368
f 336/351/369 350/372/369 351/374/369
f 328/350/370 344/375/370 329/352/370
f 336/351/371 352/376/371 337/353/371
f 330/354/372 344/375/372 345/377/372
f 337/353/373 353/365/373 338/355/373
f 331/356/374 345/377/374 346/378/374
f 343/373/375 357/379/375 358/380/375
f 351/374/376 365/381/376 366/382/376
f 343/373/377 359/383/377 344/375/377
f 351/374/378 367/384/378 352/376/378
f 345/377/379 359/383/379 360/385/379
f 352/376/380 368/386/380 353/365/380
f 346/378/381 360/385/381 361/387/381
f 339/364/382 1/10/382 354/388/382
f 8/12/383 353/365/383 368/386/383
f 346/378/384 362/389/384 347/366/384
f 339/364/385 355/390/385 340/367/385
f 347/366/386 363/391/386 348/368/386
f 341/369/387 355/390/387 356/392/387
f 349/370/388 363/391/388 364/393/388
f 341/369/389 357/379/389 342/371/389
f 349/370/390 365/381/390 350/372/390
f 361/387/391 377/394/391 362/389/391
f 354/388/392 370/395/392 355/390/392
f 362/389/393 378/396/393 363/391/393
f 356/392/394 370/395/394 371/397/394
f 364/393/395 378/396/395 379/398/395
f 356/392/396 372/399/396 357/379/396
f 364/393/397 380/400/397 365/381/397
f 358/380/398 372/399/398 373/401/398
f 366/382/399 380/400/399 381/402/399
f 358/380/400 374/403/400 359/383/400
f 366/382/401 382/404/401 367/384/401
f 360/385/402 374/403/402 375/405/402
f 367/384/403 383/406/403 368/386/403
f 361/387/404 375/405/404 376/407/404
f 354/388/405 1/10/405 369/408/405
f 8/12/406 368/386/406 383/406/406
f 381/402/407 395/409/407 396/410/407
f 373/401/408 389/411/408 374/403/408
f 381/402/409 397/412/409 382/404/409
f 375/405/410 389/411/410 390/413/410
f 382/404/411 398/414/411 383/406/411
f 376/407/412 390/413/412 391/415/412
f 369/408/413 1/10/413 384/416/413
f 8/12/414 383/406/414 398/414/414
f 376/407/415 392/417/415 377/394/415
f 369/408/416 385/418/416 370/395/416
f 377/394/417 393/419/417 378/396/417
f 371/397/418 385/418/418 386/420/418
f 379/398/419 393/419/419 394/421/419
f 371/397/420 387/422/420 372/399/420
f 379/398/421 395/409/421 380/400/421
f 373/401/422 387/422/422 388/423/422
f 392/417/423 408/424/423 393/419/423
f 385/418/424 401/425/425 386/420/425
f 394/421/426 408/424/426 409/426/426
f 386/420/427 402/427/427 387/422/427
f 394/421/428 410/428/428 395/409/428
f 388/423/429 402/427/429 403/429/429
f 396/410/430 410/428/430 411/430/430
f 388/423/431 404/431/431 389/411/431
f 397/412/432 411/430/433 412/432/432
f 390/413/434 404/431/434 405/433/434
f 397/412/435 413/434/435 398/414/435
f 391/415/436 405/433/436 406/435/436
f 384/416/437 1/10/437 399/436/437
f 8/12/438 398/414/438 413/434/438
f 391/415/439 407/437/439 392/417/439
f 385/418/440 399/436/440 400/438/440
f 411/430/441 427/439/441 412/432/441
f 405/433/442 419/440/442 420/441/442
f 412/432/443 428/442/443 413/434/443
f 406/435/444 420/441/444 421/443/444
f 399/436/445 1/10/445 414/444/445
f 8/12/446 413/434/446 428/442/446
f 406/435/447 422/445/447 407/437/447
f 399/436/448 415/446/448 400/438/448
f 407/437/449 423/447/449 408/424/449
f 401/425/450 415/446/450 416/448/450
f 409/426/451 423/447/451 424/449/451
f 401/425/452 417/450/452 402/427/452
f 409/426/453 425/451/453 410/428/453
f 403/429/454 417/450/454 418/452/454
f 411/430/455 425/451/455 426/453/455
f 403/429/456 419/440/456 404/431/456
f 416/448/457 430/454/457 431/455/457
f 424/449/458 438/456/458 439/457/458
f 416/448/459 432/458/459 417/450/459
f 424/449/460 440/459/460 425/451/460
f 418/452/461 432/458/461 433/460/461
f 426/453/462 440/459/462 441/461/462
f 418/452/463 434/462/463 419/440/463
f 426/453/464 442/463/464 427/439/464
f 420/441/465 434/462/465 435/464/465
f 427/439/466 443/465/466 428/442/466
f 421/443/467 435/464/467 436/466/467
f 414/444/468 1/10/468 429/467/468
f 8/12/469 428/442/469 443/465/469
f 421/443/470 437/468/470 422/445/470
f 414/444/471 430/454/471 415/446/471
f 422/445/472 438/456/472 423/447/472
f 435/464/473 449/469/473 450/470/473
f 442/463/474 458/471/474 443/465/474
f 436/466/475 450/470/475 451/472/475
f 429/467/476 1/10/476 444/473/476
f 8/12/477 443/465/477 458/471/477
f 436/466/478 452/474/478 437/468/478
f 430/454/479 444/473/479 445/475/479
f 437/468/480 453/476/480 438/456/480
f 430/454/481 446/477/481 431/455/481
f 439/457/482 453/476/482 454/478/482
f 431/455/483 447/479/483 432/458/483
f 439/457/484 455/480/484 440/459/484
f 433/460/485 447/479/485 448/481/485
f 441/461/486 455/480/486 456/482/486
f 433/460/487 449/469/487 434/462/487
f 441/461/488 457/483/488 442/463/488
f 454/478/489 468/484/489 469/485/489
f 446/477/490 462/486/490 447/479/490
f 454/478/491 470/487/491 455/480/491
f 448/481/492 462/486/492 463/488/492
f 456/482/493 470/487/493 471/489/493
f 448/481/494 464/490/494 449/469/494
f 456/482/495 472/491/495 457/483/495
f 450/470/496 464/490/496 465/492/496
f 458/471/497 472/491/497 473/493/497
f 451/472/498 465/492/498 466/494/498
f 444/473/499 1/10/499 459/495/499
f 8/12/500 458/471/500 473/493/500
f 451/472/501 467/496/501 452/474/501
f 444/473/502 460/497/502 445/475/502
f 452/474/503 468/484/503 453/476/503
f 446/477/504 460/497/504 461/498/504
f 472/491/505 482/6/505 473/493/505
f 466/494/506 4/1/506 5/8/506
f 459/495/507 1/10/507 474/9/507
f 8/12/508 473/493/508 482/6/508
f 466/494/509 6/14/509 467/496/509
f 460/497/510 474/9/510 475/15/510
f 467/496/511 478/18/511 468/484/511
f 461/498/512 475/15/512 2/19/512
f 468/484/513 7/22/513 469/485/513
f 462/486/514 2/19/514 476/23/514
f 469/485/515 479/26/515 470/487/515
f 463/488/516 476/23/516 3/27/516
f 471/489/517 479/26/517 480/30/517
f 464/490/518 3/27/518 477/31/518
f 471/489/519 481/4/519 472/491/519
f 465/492/520 477/31/520 4/1/520
f 4/1/1 477/31/1 14/2/1
f 481/4/2 22/32/2 23/5/2
f 4/1/3 15/3/521 16/7/3
f 5/8/6 16/7/522 17/13/6
f 475/15/7 474/9/7 9/11/7
f 6/14/8 17/13/8 18/17/8
f 2/19/9 475/15/9 10/16/9
f 478/18/10 18/17/10 19/21/10
f 476/23/11 2/19/11 11/20/11
f 7/22/12 19/21/12 20/25/12
f 3/27/13 476/23/13 12/24/13
f 479/26/14 20/25/14 21/29/14
f 477/31/15 3/27/15 13/28/15
f 480/30/16 21/29/16 22/32/16
f 13/28/17 28/47/17 29/33/17
f 22/32/18 21/29/18 36/34/18
f 15/3/19 14/2/19 29/33/19
f 22/32/20 37/35/20 38/37/20
f 15/3/21 30/36/21 31/38/21
f 16/7/24 31/38/24 32/40/24
f 9/11/25 24/39/25 25/41/25
f 17/13/26 32/40/26 33/42/26
f 10/16/27 25/41/27 26/43/27
f 18/17/28 33/42/28 34/44/28
f 11/20/29 26/43/29 27/45/29
f 19/21/30 34/44/30 35/46/30
f 12/24/31 27/45/31 28/47/31
f 21/29/32 20/25/32 35/46/32
f 32/40/33 47/64/33 48/48/33
f 25/41/34 40/65/34 41/49/34
f 34/44/35 33/42/35 48/48/35
f 26/43/36 41/49/36 42/51/36
f 35/46/37 34/44/37 49/50/37
f 27/45/38 42/51/38 43/53/38
f 36/34/39 35/46/39 50/52/39
f 28/47/40 43/53/40 44/55/40
f 36/34/41 51/54/41 52/56/41
f 29/33/42 44/55/42 45/58/42
f 37/57/43 52/56/43 53/59/43
f 30/36/44 45/58/44 46/61/44
f 32/40/47 31/38/47 46/61/47
f 24/39/48 39/62/48 40/65/48
f 51/54/49 66/80/49 67/66/49
f 45/58/50 44/55/50 59/67/50
f 52/56/51 67/66/51 68/69/51
f 46/61/52 45/58/52 60/68/52
f 46/61/55 61/70/55 62/72/55
f 39/62/56 54/71/56 55/73/56
f 47/64/57 62/72/57 63/74/57
f 40/65/58 55/73/58 56/75/58
f 49/50/59 48/48/59 63/74/59
f 41/49/60 56/75/60 57/77/60
f 49/50/61 64/76/61 65/78/61
f 42/51/62 57/77/62 58/79/62
f 50/52/63 65/78/63 66/80/63
f 43/53/64 58/79/64 59/67/64
f 55/73/65 70/95/65 71/81/65
f 64/76/66 63/74/66 78/82/66
f 56/75/67 71/81/67 72/84/67
f 64/76/68 79/83/68 80/85/68
f 58/79/69 57/77/69 72/84/69
f 65/78/70 80/85/70 81/87/70
f 58/79/71 73/86/71 74/88/71
f 67/66/72 66/80/72 81/87/72
f 60/68/73 59/67/73 74/88/73
f 67/66/74 82/89/74 83/91/74
f 61/70/75 60/68/75 75/90/75
f 61/70/78 76/92/78 77/94/78
f 54/71/79 69/93/79 70/95/79
f 62/72/80 77/94/80 78/82/80
f 75/90/81 74/88/81 89/96/81
f 83/91/82 82/89/82 97/98/82
f 76/92/83 75/90/83 90/97/83
f 76/92/86 91/100/86 92/102/86
f 69/93/87 84/101/87 85/103/87
f 77/94/88 92/102/88 93/104/88
f 70/95/89 85/103/89 86/105/89
f 79/83/90 78/82/90 93/104/90
f 71/81/91 86/105/91 87/107/91
f 79/83/92 94/106/92 95/108/92
f 73/86/93 72/84/93 87/107/93
f 80/85/94 95/108/94 96/110/94
f 73/86/95 88/109/95 89/96/95
f 81/87/96 96/110/96 97/98/96
f 94/106/97 93/104/97 108/111/97
f 86/105/98 101/125/98 102/113/98
f 94/106/99 109/112/99 110/114/99
f 88/109/100 87/107/100 102/113/100
f 96/110/101 95/108/101 110/114/101
f 88/109/102 103/115/102 104/117/102
f 97/98/103 96/110/103 111/116/103
f 90/97/104 89/96/104 104/117/104
f 97/98/105 112/118/105 113/120/105
f 91/100/106 90/97/523 105/119/106
f 91/100/109 106/121/109 107/123/109
f 85/103/111 84/101/111 99/122/111
f 92/102/112 107/123/112 108/111/112
f 85/103/113 100/124/113 101/125/113
f 112/118/114 127/140/114 128/126/114
f 106/121/115 105/119/115 120/127/115
f 106/121/118 121/128/118 122/130/118
f 100/124/119 99/122/119 114/129/119
f 107/123/120 122/130/120 123/132/120
f 100/124/121 115/131/121 116/133/121
f 109/112/122 108/111/122 123/132/122
f 101/125/123 116/133/123 117/135/123
f 109/112/124 124/134/124 125/136/124
f 103/115/125 102/113/125 117/135/125
f 111/116/126 110/114/126 125/136/126
f 103/115/127 118/137/127 119/139/127
f 111/116/128 126/138/128 127/140/128
f 105/119/129 104/117/129 119/139/129
f 124/134/130 139/155/130 140/141/130
f 118/137/131 117/135/131 132/142/131
f 126/138/132 125/136/132 140/141/132
f 118/137/133 133/143/133 134/145/133
f 126/138/134 141/144/134 142/146/134
f 120/127/135 119/139/135 134/145/135
f 127/140/136 142/146/136 143/148/136
f 121/128/137 120/127/137 135/147/137
f 121/128/141 136/149/524 137/151/141
f 114/129/142 129/150/142 130/152/142
f 122/130/143 137/151/143 138/153/143
f 115/131/144 130/152/144 131/154/144
f 124/134/145 123/132/145 138/153/145
f 116/133/146 131/154/146 132/142/146
f 136/149/149 151/170/149 152/158/149
f 129/150/150 144/156/150 145/159/150
f 137/151/151 152/158/151 153/160/151
f 131/154/152 130/152/152 145/159/152
f 139/155/153 138/153/153 153/160/153
f 131/154/154 146/161/154 147/163/154
f 139/155/155 154/162/155 155/164/155
f 133/143/156 132/142/156 147/163/156
f 141/144/157 140/141/157 155/164/157
f 133/143/158 148/165/158 149/167/158
f 141/144/159 156/166/159 157/168/159
f 135/147/160 134/145/160 149/167/160
f 143/148/161 142/146/161 157/168/161
f 136/149/162 135/147/162 150/169/162
f 148/165/163 147/163/163 162/171/163
f 156/166/164 155/164/164 170/173/164
f 148/165/165 163/172/165 164/175/165
f 156/166/166 171/174/166 172/176/166
f 150/169/167 149/167/167 164/175/167
f 157/168/168 172/176/168 173/178/168
f 151/170/169 150/169/169 165/177/169
f 151/170/172 166/179/172 167/181/172
f 144/156/173 159/180/173 160/182/173
f 152/158/174 167/181/174 168/183/174
f 146/161/175 145/159/525 160/182/175
f 154/162/176 153/160/176 168/183/176
f 146/161/177 161/184/177 162/171/177
f 154/162/178 169/185/178 170/173/178
f 166/179/179 181/199/179 182/186/179
f 159/180/180 174/200/180 175/187/180
f 167/181/181 182/186/181 183/188/181
f 160/182/182 175/187/182 176/189/182
f 169/185/183 168/183/183 183/188/183
f 161/184/184 176/189/184 177/191/184
f 169/185/185 184/190/185 185/192/185
f 163/172/186 162/171/186 177/191/186
f 170/173/187 185/192/187 186/194/187
f 163/172/188 178/193/188 179/195/188
f 172/176/189 171/174/189 186/194/189
f 165/177/190 164/175/190 179/195/190
f 173/178/191 172/176/191 187/196/191
f 166/179/192 165/177/192 180/197/192
f 186/194/195 185/192/195 200/201/195
f 178/193/196 193/215/196 194/203/196
f 186/194/197 201/202/197 202/204/197
f 180/197/198 179/195/198 194/203/198
f 187/196/199 202/204/199 203/206/199
f 181/199/200 180/197/200 195/205/200
f 181/199/203 196/207/203 197/209/203
f 175/187/204 174/200/204 189/208/204
f 182/186/205 197/209/205 198/211/205
f 176/189/206 175/187/206 190/210/206
f 184/190/207 183/188/207 198/211/207
f 176/189/208 191/212/208 192/214/208
f 184/190/209 199/213/209 200/201/209
f 178/193/210 177/191/210 192/214/210
f 189/208/211 204/229/211 205/216/211
f 197/209/212 212/230/212 213/217/212
f 190/210/213 205/216/213 206/218/214
f 199/213/215 198/211/215 213/217/215
f 191/212/216 206/218/216 207/220/216
f 199/213/217 214/219/217 215/221/217
f 193/215/218 192/214/218 207/220/218
f 201/202/219 200/201/219 215/221/219
f 193/215/220 208/222/220 209/224/220
f 201/202/221 216/223/221 217/225/221
f 195/205/222 194/203/222 209/224/222
f 202/204/223 217/225/223 218/227/223
f 196/207/224 195/205/224 210/226/224
f 196/207/227 211/228/227 212/230/227
f 208/222/228 223/244/228 224/231/228
f 216/223/229 231/245/229 232/232/229
f 210/226/230 209/224/230 224/231/230
f 217/225/231 232/232/231 233/234/231
f 211/228/232 210/226/232 225/233/232
f 211/228/235 226/235/235 227/237/235
f 204/229/236 219/236/236 220/238/236
f 212/230/237 227/237/237 228/239/237
f 205/216/238 220/238/238 221/240/238
f 214/219/239 213/217/239 228/239/239
f 206/218/240 221/240/240 222/242/240
f 214/219/241 229/241/241 230/243/241
f 208/222/242 207/220/242 222/242/242
f 216/223/243 215/221/243 230/243/243
f 227/237/244 242/260/244 243/246/244
f 221/240/245 220/238/245 235/247/245
f 229/241/246 228/239/246 243/246/246
f 221/240/247 236/248/247 237/250/247
f 229/241/248 244/249/248 245/251/248
f 223/244/249 222/242/249 237/250/249
f 231/245/250 230/243/250 245/251/250
f 223/244/251 238/252/251 239/254/251
f 231/245/252 246/253/252 247/255/252
f 225/233/253 224/231/253 239/254/253
f 233/234/254 232/232/254 247/255/254
f 226/235/255 225/233/255 240/256/255
f 226/235/258 241/258/258 242/260/258
f 219/236/259 234/259/259 235/247/259
f 246/253/260 261/275/260 262/261/260
f 240/256/261 239/254/261 254/262/261
f 247/255/262 262/261/262 263/264/262
f 241/258/263 240/256/526 255/263/263
f 241/258/266 256/265/266 257/267/266
f 234/259/268 249/266/268 250/268/268
f 242/260/269 257/267/269 258/269/269
f 235/247/270 250/268/270 251/270/270
f 244/249/271 243/246/271 258/269/271
f 236/248/272 251/270/272 252/272/272
f 244/249/273 259/271/273 260/273/273
f 238/252/274 237/250/274 252/272/274
f 246/253/275 245/251/275 260/273/275
f 238/252/276 253/274/276 254/262/276
f 259/276/277 258/302/277 273/277/277
f 251/279/278 266/303/278 267/280/278
f 259/276/279 274/278/279 275/282/279
f 253/284/280 252/281/280 267/280/280
f 261/286/281 260/283/281 275/282/281
f 253/284/282 268/285/282 269/288/282
f 261/286/283 276/287/283 277/290/283
f 255/292/284 254/289/284 269/288/284
f 262/291/285 277/290/285 278/294/285
f 256/296/286 255/292/286 270/293/286
f 256/296/289 271/297/289 272/299/289
f 250/268/290 249/266/290 264/298/290
f 257/300/291 272/299/291 273/277/291
f 250/268/292 265/301/292 266/303/292
f 278/294/293 277/290/293 292/304/293
f 271/297/294 270/293/294 285/306/294
f 271/297/297 286/307/297 287/309/297
f 265/301/298 264/298/298 279/308/298
f 272/299/299 287/309/299 288/311/299
f 265/301/300 280/310/300 281/312/300
f 274/278/301 273/277/301 288/311/301
f 266/303/302 281/312/302 282/314/302
f 274/278/303 289/313/303 290/315/303
f 268/285/304 267/280/304 282/314/304
f 276/287/305 275/282/305 290/315/305
f 268/285/306 283/316/306 284/318/306
f 276/287/307 291/317/308 292/304/307
f 270/293/309 269/288/309 284/318/309
f 281/312/310 296/332/310 297/319/310
f 289/313/311 304/333/311 305/320/311
f 283/316/312 282/314/312 297/319/312
f 291/317/313 290/315/313 305/320/313
f 283/316/314 298/321/314 299/323/314
f 291/317/315 306/322/315 307/324/315
f 285/306/316 284/318/316 299/323/316
f 293/305/317 292/304/317 307/324/317
f 286/307/318 285/306/318 300/325/318
f 286/307/321 301/327/321 302/329/321
f 279/308/322 294/328/322 295/330/322
f 287/309/323 302/329/323 303/331/323
f 280/310/324 295/330/324 296/332/324
f 289/313/325 288/311/325 303/331/325
f 301/327/326 300/325/326 315/334/326
f 301/327/329 316/335/329 317/338/329
f 294/328/330 309/336/330 310/339/330
f 302/329/331 317/338/331 318/340/331
f 295/330/332 310/339/332 311/341/332
f 304/333/333 303/331/333 318/340/333
f 296/332/334 311/341/334 312/343/334
f 304/333/335 319/342/335 320/344/335
f 298/321/336 297/319/336 312/343/336
f 306/322/337 305/320/337 320/344/337
f 298/321/338 313/345/338 314/347/338
f 306/322/339 321/346/339 322/348/339
f 300/325/340 299/323/340 314/347/340
f 307/324/341 322/348/341 323/337/341
f 319/342/342 334/362/342 335/349/342
f 312/343/343 327/363/343 328/350/343
f 321/346/344 320/344/344 335/349/344
f 313/345/345 328/350/345 329/352/345
f 321/346/346 336/351/346 337/353/347
f 315/334/348 314/347/348 329/352/348
f 322/348/349 337/353/349 338/355/349
f 316/335/350 315/334/350 330/354/350
f 316/335/353 331/356/353 332/358/353
f 309/336/354 324/357/354 325/359/354
f 317/338/355 332/358/355 333/360/355
f 310/339/356 325/359/356 326/361/356
f 319/342/357 318/340/357 333/360/357
f 311/341/358 326/361/358 327/363/358
f 331/356/361 346/378/361 347/366/361
f 324/357/362 339/364/362 340/367/362
f 332/358/363 347/366/363 348/368/363
f 325/359/364 340/367/364 341/369/364
f 334/362/365 333/360/365 348/368/365
f 326/361/366 341/369/366 342/371/366
f 334/362/367 349/370/367 350/372/367
f 328/350/368 327/363/368 342/371/368
f 336/351/369 335/349/369 350/372/369
f 328/350/370 343/373/370 344/375/370
f 336/351/371 351/374/371 352/376/371
f 330/354/372 329/352/372 344/375/372
f 337/353/373 352/376/373 353/365/373
f 331/356/374 330/354/374 345/377/374
f 343/373/375 342/371/375 357/379/375
f 351/374/376 350/372/376 365/381/376
f 343/373/377 358/380/377 359/383/377
f 351/374/378 366/382/378 367/384/378
f 345/377/379 344/375/379 359/383/379
f 352/376/380 367/384/380 368/386/380
f 346/378/381 345/377/381 360/385/381
f 346/378/384 361/387/384 362/389/384
f 339/364/385 354/388/385 355/390/385
f 347/366/386 362/389/386 363/391/386
f 341/369/387 340/367/387 355/390/387
f 349/370/388 348/368/388 363/391/388
f 341/369/389 356/392/389 357/379/389
f 349/370/390 364/393/390 365/381/390
f 361/387/391 376/407/391 377/394/391
f 354/388/392 369/408/392 370/395/392
f 362/389/393 377/394/393 378/396/393
f 356/392/394 355/390/394 370/395/394
f 364/393/395 363/391/395 378/396/395
f 356/392/396 371/397/396 372/399/396
f 364/393/397 379/398/397 380/400/397
f 358/380/398 357/379/398 372/399/398
f 366/382/399 365/381/399 380/400/399
f 358/380/400 373/401/400 374/403/400
f 366/382/401 381/402/401 382/404/401
f 360/385/402 359/383/402 374/403/402
f 367/384/403 382/404/403 383/406/403
f 361/387/404 360/385/404 375/405/404
f 381/402/407 380/400/407 395/409/407
f 373/401/408 388/423/408 389/411/408
f 381/402/409 396/410/409 397/412/409
f 375/405/410 374/403/410 389/411/410
f 382/404/411 397/412/411 398/414/411
f 376/407/412 375/405/412 390/413/412
f 376/407/415 391/415/415 392/417/415
f 369/408/416 384/416/416 385/418/416
f 377/394/417 392/417/417 393/419/417
f 371/397/418 370/395/418 385/418/418
f 379/398/419 378/396/419 393/419/419
f 371/397/420 386/420/420 387/422/420
f 379/398/421 394/421/421 395/409/421
f 373/401/422 372/399/422 387/422/422
f 392/417/423 407/437/423 408/424/423
f 385/418/424 400/438/424 401/425/425
f 394/421/426 393/419/426 408/424/426
f 386/420/427 401/425/427 402/427/427
f 394/421/428 409/426/428 410/428/428
f 388/423/429 387/422/429 402/427/429
f 396/410/430 395/409/430 410/428/430
f 388/423/431 403/429/431 404/431/431
f 397/412/432 396/410/433 411/430/433
f 390/413/434 389/411/434 404/431/434
f 397/412/435 412/432/435 413/434/435
f 391/415/436 390/413/436 405/433/436
f 391/415/439 406/435/439 407/437/439
f 385/418/440 384/416/440 399/436/440
f 411/430/441 426/453/441 427/439/441
f 405/433/442 404/431/442 419/440/442
f 412/432/443 427/439/443 428/442/443
f 406/435/444 405/433/444 420/441/444
f 406/435/447 421/443/447 422/445/447
f 399/436/448 414/444/448 415/446/448
f 407/437/449 422/445/449 423/447/449
f 401/425/450 400/438/450 415/446/450
f 409/426/451 408/424/451 423/447/451
f 401/425/452 416/448/452 417/450/452
f 409/426/453 424/449/453 425/451/453
f 403/429/454 402/427/454 417/450/454
f 411/430/455 410/428/455 425/451/455
f 403/429/456 418/452/456 419/440/456
f 416/448/457 415/446/457 430/454/457
f 424/449/458 423/447/458 438/456/458
f 416/448/459 431/455/459 432/458/459
f 424/449/460 439/457/460 440/459/460
f 418/452/461 417/450/461 432/458/461
f 426/453/462 425/451/462 440/459/462
f 418/452/463 433/460/463 434/462/463
f 426/453/464 441/461/464 442/463/464
f 420/441/465 419/440/465 434/462/465
f 427/439/466 442/463/466 443/465/466
f 421/443/467 420/441/467 435/464/467
f 421/443/470 436/466/470 437/468/470
f 414/444/471 429/467/471 430/454/471
f 422/445/472 437/468/472 438/456/472
f 435/464/473 434/462/473 449/469/473
f 442/463/474 457/483/474 458/471/474
f 436/466/475 435/464/475 450/470/475
f 436/466/478 451/472/478 452/474/478
f 430/454/479 429/467/479 444/473/479
f 437/468/480 452/474/480 453/476/480
f 430/454/481 445/475/481 446/477/481
f 439/457/482 438/456/482 453/476/482
f 431/455/483 446/477/483 447/479/483
f 439/457/484 454/478/484 455/480/484
f 433/460/485 432/458/485 447/479/485
f 441/461/486 440/459/486 455/480/486
f 433/460/487 448/481/487 449/469/487
f 441/461/488 456/482/488 457/483/488
f 454/478/489 453/476/489 468/484/489
f 446/477/490 461/498/490 462/486/490
f 454/478/491 469/485/491 470/487/491
f 448/481/492 447/479/492 462/486/492
f 456/482/493 455/480/493 470/487/493
f 448/481/494 463/488/494 464/490/494
f 456/482/495 471/489/495 472/491/495
f 450/470/496 449/469/496 464/490/496
f 458/471/497 457/483/497 472/491/497
f 451/472/498 450/470/498 465/492/498
f 451/472/501 466/494/501 467/496/501
f 444/473/502 459/495/502 460/497/502
f 452/474/503 467/496/503 468/484/503
f 446/477/504 445/475/504 460/497/504
f 472/491/505 481/4/505 482/6/505
f 466/494/506 465/492/506 4/1/506
f 466/494/509 5/8/527 6/14/509
f 460/497/510 459/495/510 474/9/510
f 467/496/511 6/14/511 478/18/511
f 461/498/512 460/497/512 475/15/512
f 468/484/513 478/18/513 7/22/513
f 462/486/514 461/498/514 2/19/514
f 469/485/515 7/22/515 479/26/515
f 463/488/516 462/486/516 476/23/516
f 471/489/517 470/487/517 479/26/517
f 464/490/518 463/488/518 3/27/518
f 471/489/519 480/30/519 481/4/519
f 465/492/520 464/490/520 477/31/520
